<?xml version="1.0" encoding="UTF-8" standalone="no"?>
<!-- Page 8 -->

<svg
   xmlns:dc="http://purl.org/dc/elements/1.1/"
   xmlns:cc="http://creativecommons.org/ns#"
   xmlns:rdf="http://www.w3.org/1999/02/22-rdf-syntax-ns#"
   xmlns:svg="http://www.w3.org/2000/svg"
   xmlns="http://www.w3.org/2000/svg"
   xmlns:sodipodi="http://sodipodi.sourceforge.net/DTD/sodipodi-0.dtd"
   xmlns:inkscape="http://www.inkscape.org/namespaces/inkscape"
   x="0"
   y="0"
   width="762"
   height="1104"
   viewBox="0 0 762 1104"
   version="1.1"
   style="display: block;margin-left: auto;margin-right: auto;"
   id="svg2824"
   sodipodi:docname="cryo_numb.svg"
   inkscape:version="0.92.1 r15371">
  <metadata
     id="metadata2828">
    <rdf:RDF>
      <cc:Work
         rdf:about="">
        <dc:format>image/svg+xml</dc:format>
        <dc:type
           rdf:resource="http://purl.org/dc/dcmitype/StillImage" />
        <dc:title></dc:title>
      </cc:Work>
    </rdf:RDF>
  </metadata>
  <sodipodi:namedview
     pagecolor="#ffffff"
     bordercolor="#666666"
     borderopacity="1"
     objecttolerance="10"
     gridtolerance="10"
     guidetolerance="10"
     inkscape:pageopacity="0"
     inkscape:pageshadow="2"
     inkscape:window-width="1280"
     inkscape:window-height="949"
     id="namedview2826"
     showgrid="false"
     inkscape:zoom="0.70710678"
     inkscape:cx="247.58139"
     inkscape:cy="539.8029"
     inkscape:window-x="-9"
     inkscape:window-y="-9"
     inkscape:window-maximized="1"
     inkscape:current-layer="svg2824" />
  <defs
     id="defs15">
    <clipPath
       id="c0_8">
      <path
         d="M0,1104.6L0,-0.2l762.4,0l0,1104.8Z"
         id="path10" />
    </clipPath>
    <style
       type="text/css"
       id="style13"><![CDATA[

.g1_8{
}
.g2_8{
fill: #050606;
}
.g3_8{
fill: none;
stroke: #050606;
stroke-width: 1.7325;
stroke-linecap: butt;
stroke-linejoin: miter;
stroke-miterlimit: 4;
}
.g4_8{
fill: #FFFFFF;
}
.g5_8{
fill: none;
stroke: #050606;
stroke-width: 1.7325;
stroke-linecap: butt;
stroke-linejoin: miter;
stroke-miterlimit: 4;
stroke-dasharray: 4;
}
.g6_8{
fill: none;
stroke: #050606;
stroke-width: 1.3856945;
stroke-linecap: butt;
stroke-linejoin: miter;
stroke-miterlimit: 4;
}

.s1_8{
font-size: 15.22px;
font-family: AdvP41153C_p;
fill: TRANSPARENT;
}
.s2_8{
font-size: 15.22px;
font-family: AdvP4B2E3F_16;
fill: TRANSPARENT;
}
.s3_8{
font-size: 15.22px;
font-family: AdvP41153C_k;
fill: TRANSPARENT;
}
.s4_8{
font-size: 15.22px;
font-family: AdvP6EC5_4;
fill: TRANSPARENT;
}
.s5_8{
font-size: 12.22px;
font-family: Helvetica_r;
fill: TRANSPARENT;
}
.s6_8{
font-size: 13.70px;
font-family: AdvP4A213B_q;
fill: TRANSPARENT;
}
.s7_8{
font-size: 13.70px;
font-family: AdvP6EC5_4;
fill: TRANSPARENT;
}
.s8_8{
font-size: 10.65px;
font-family: AdvP6EC0_d;
fill: TRANSPARENT;
}
text::-moz-selection {
	color: transparent;
	background: rgba(0, 106, 173, 0.4);
}
text::selection {
	color: transparent;
	background: rgba(0, 106, 173, 0.4);
}

]]></style>
  </defs>
  <path
     d="m 251.6058,134.37835 2.64048,2.42044 h -54.34981 l 2.64047,-2.42044 z"
     class="g2_8"
     id="path1897"
     inkscape:connector-curvature="0"
     style="fill:#050606;stroke-width:2.20039725" />
  <path
     d="m 251.6058,89.49025 2.64048,-2.640477 v 49.949017 l -2.64048,-2.42044 z"
     class="g2_8"
     id="path1899"
     inkscape:connector-curvature="0"
     style="fill:#050606;stroke-width:2.20039725" />
  <path
     d="m 201.43674,89.49025 -2.64047,-2.640477 h 55.45001 l -2.64048,2.640477 z"
     class="g2_8"
     id="path1901"
     inkscape:connector-curvature="0"
     style="fill:#050606;stroke-width:2.20039725" />
  <path
     d="m 202.53694,134.37835 -2.64047,2.42044 -1.1002,-49.949017 2.64047,2.640477 z"
     class="g2_8"
     id="path1903"
     inkscape:connector-curvature="0"
     style="fill:#050606;stroke-width:2.20039725" />
  <path
     d="m 251.6058,239.55734 2.64048,2.64047 h -54.34981 l 2.64047,-2.64047 z"
     class="g2_8"
     id="path1905"
     inkscape:connector-curvature="0"
     style="fill:#050606;stroke-width:2.20039725" />
  <path
     d="m 251.6058,194.88927 2.64048,-2.64047 v 49.94901 l -2.64048,-2.64047 z"
     class="g2_8"
     id="path1907"
     inkscape:connector-curvature="0"
     style="fill:#050606;stroke-width:2.20039725" />
  <path
     d="m 202.53694,194.88927 -2.64047,-2.64047 h 54.34981 l -2.64048,2.64047 z"
     class="g2_8"
     id="path1909"
     inkscape:connector-curvature="0"
     style="fill:#050606;stroke-width:2.20039725" />
  <path
     d="m 202.53694,239.55734 -2.64047,2.64047 V 192.2488 l 2.64047,2.64047 z"
     class="g2_8"
     id="path1911"
     inkscape:connector-curvature="0"
     style="fill:#050606;stroke-width:2.20039725" />
  <path
     d="m 196.81591,102.69263 c -0.88016,-3.520633 -4.62083,-3.520633 -5.50099,0 -0.66012,3.74068 -4.62084,3.74068 -5.28096,0 -0.66011,-3.520633 -4.62083,-3.520633 -5.28095,0 -0.66012,3.74068 -4.62083,3.74068 -5.28095,0 -0.88016,-3.520633 -4.62084,-3.520633 -5.50099,0 -0.66012,3.74068 -4.62084,3.74068 -5.28096,0 -0.66012,-3.520633 -4.62083,-3.520633 -5.28095,0 -0.88016,3.74068 -4.62083,3.74068 -5.28095,0 -0.88016,-3.520633 -4.62084,-3.520633 -5.501,0 -0.66012,3.74068 -4.62083,3.74068 -5.28095,0 -0.66012,-3.520633 -4.62083,-3.520633 -5.28095,0 -0.88016,3.74068 -4.62084,3.74068 -5.501,0 -0.66012,-3.520633 -4.40079,-3.520633 -5.28095,0 -0.66012,3.74068 -4.62083,3.74068 -5.28095,0 m 74.8135,22.66409 c -0.88016,-3.52063 -4.62083,-3.52063 -5.50099,0 -0.66012,3.52064 -4.62084,3.52064 -5.28096,0 -0.66011,-3.52063 -4.62083,-3.52063 -5.28095,0 -0.66012,3.52064 -4.62083,3.52064 -5.28095,0 -0.88016,-3.52063 -4.62084,-3.52063 -5.50099,0 -0.66012,3.52064 -4.62084,3.52064 -5.28096,0 -0.66012,-3.52063 -4.62083,-3.52063 -5.28095,0 -0.88016,3.52064 -4.62083,3.52064 -5.28095,0 -0.88016,-3.52063 -4.62084,-3.52063 -5.501,0 -0.66012,3.52064 -4.62083,3.52064 -5.28095,0 -0.66012,-3.52063 -4.62083,-3.52063 -5.28095,0 -0.88016,3.52064 -4.62084,3.52064 -5.501,0 -0.66012,-3.52063 -4.40079,-3.52063 -5.28095,0 -0.66012,3.52064 -4.62083,3.52064 -5.28095,0 m 77.23394,82.95498 c -0.66012,-3.3006 -4.18076,-3.3006 -4.84088,0 -0.66012,3.08055 -4.18075,3.08055 -4.84087,0 -0.66012,-3.3006 -4.18075,-3.3006 -4.84087,0 -0.66012,3.08055 -4.18076,3.08055 -4.84088,0 -0.66012,-3.3006 -4.18075,-3.3006 -4.84087,0 -0.66012,3.08055 -4.18076,3.08055 -4.84087,0 -0.66012,-3.3006 -3.96072,-3.3006 -4.62084,0 -0.66012,3.08055 -4.18075,3.08055 -4.84087,0 -0.66012,-3.3006 -4.18076,-3.3006 -4.84088,0 -0.66012,3.08055 -4.18075,3.08055 -4.84087,0 -0.66012,-3.3006 -4.18075,-3.3006 -4.84087,0 -0.66012,3.08055 -4.18076,3.08055 -4.84088,0 -0.66012,-3.3006 -4.18075,-3.3006 -4.84087,0 -0.66012,3.08055 -4.18076,3.08055 -4.62084,0 -0.66011,-3.3006 -4.18075,-3.3006 -4.84087,0 -0.66012,3.08055 -4.18075,3.08055 -4.84087,0 m 77.0139,22.22401 c -0.66012,-3.3006 -4.18076,-3.3006 -4.84088,0 -0.66012,3.30059 -4.18075,3.30059 -4.84087,0 -0.66012,-3.3006 -4.18075,-3.3006 -4.84087,0 -0.66012,3.30059 -4.18076,3.30059 -4.84088,0 -0.66012,-3.3006 -4.18075,-3.3006 -4.84087,0 -0.66012,3.30059 -4.18076,3.30059 -4.84087,0 -0.66012,-3.3006 -3.96072,-3.3006 -4.62084,0 -0.66012,3.30059 -4.18075,3.30059 -4.84087,0 -0.66012,-3.3006 -4.18076,-3.3006 -4.84088,0 -0.66012,3.30059 -4.18075,3.30059 -4.84087,0 -0.66012,-3.3006 -4.18075,-3.3006 -4.84087,0 -0.66012,3.30059 -4.18076,3.30059 -4.84088,0 -0.66012,-3.3006 -4.18075,-3.3006 -4.84087,0 -0.66012,3.30059 -4.18076,3.30059 -4.62084,0 -0.66011,-3.3006 -4.18075,-3.3006 -4.84087,0 -0.66012,3.30059 -4.18075,3.30059 -4.84087,0"
     class="g3_8"
     id="path1913"
     inkscape:connector-curvature="0"
     style="fill:none;stroke:#050606;stroke-width:3.81218791;stroke-linecap:butt;stroke-linejoin:miter;stroke-miterlimit:4" />
  <path
     d="m 280.21096,341.65576 -2.64047,-2.64047 v -50.16906 h 2.64047 z"
     class="g2_8"
     id="path1915"
     inkscape:connector-curvature="0"
     style="fill:#050606;stroke-width:2.20039725" />
  <path
     d="m 511.03263,339.01529 -2.64048,2.64047 v -50.60913 h 2.64048 z"
     class="g2_8"
     id="path1917"
     inkscape:connector-curvature="0"
     style="fill:#050606;stroke-width:2.20039725" />
  <path
     d="m 206.05758,341.65576 1.54028,-2.64047 h 69.97263 l 2.64047,2.64047 z"
     class="g2_8"
     id="path1919"
     inkscape:connector-curvature="0"
     style="fill:#050606;stroke-width:2.20039725" />
  <path
     d="m 194.61551,321.63215 -1.32023,-4.84087 0.66011,-1.32024 13.64247,23.54425 -1.54028,2.64047 z"
     class="g2_8"
     id="path1921"
     inkscape:connector-curvature="0"
     style="fill:#050606;stroke-width:2.20039725" />
  <path
     d="m 181.41313,318.11151 -2.42044,-2.64047 h 14.9627 l -0.66011,1.32024 -1.32024,1.32023 z"
     class="g2_8"
     id="path1923"
     inkscape:connector-curvature="0"
     style="fill:#050606;stroke-width:2.20039725" />
  <path
     d="m 277.57049,377.52224 2.64047,-2.64048 0.88016,85.59545 -2.42043,2.42044 z"
     class="g2_8"
     id="path1925"
     inkscape:connector-curvature="0"
     style="fill:#050606;stroke-width:2.20039725" />
  <path
     d="m 207.59786,377.52224 -1.54028,-2.64048 h 74.15338 l -2.64047,2.64048 z"
     class="g2_8"
     id="path1927"
     inkscape:connector-curvature="0"
     style="fill:#050606;stroke-width:2.20039725" />
  <path
     d="m 193.95539,401.06649 -0.66011,-1.32024 1.32023,-4.84087 11.44207,-20.02362 1.54028,2.64048 z"
     class="g2_8"
     id="path1929"
     inkscape:connector-curvature="0"
     style="fill:#050606;stroke-width:2.20039725" />
  <path
     d="m 178.99269,401.06649 2.42044,-2.64048 h 10.56191 l 1.32024,1.32024 0.66011,1.32024 z"
     class="g2_8"
     id="path1931"
     inkscape:connector-curvature="0"
     style="fill:#050606;stroke-width:2.20039725" />
  <path
     d="m 181.41313,398.42601 -2.42044,2.64048 v -85.59545 l 2.42044,2.64047 z"
     class="g2_8"
     id="path1933"
     inkscape:connector-curvature="0"
     style="fill:#050606;stroke-width:2.20039725" />
  <path
     d="m 194.61551,394.90538 -1.32023,4.84087 -1.32024,-1.32024 v -80.3145 l 1.32024,-1.32023 1.32023,4.84087 z"
     class="g2_8"
     id="path1935"
     inkscape:connector-curvature="0"
     style="fill:#050606;stroke-width:2.20039725" />
  <path
     d="m 546.67906,339.01529 1.32024,1.32024 -1.32024,1.32023 h -38.28691 l 2.64048,-2.64047 z"
     class="g2_8"
     id="path1937"
     inkscape:connector-curvature="0"
     style="fill:#050606;stroke-width:2.20039725" />
  <path
     d="m 546.67906,321.19207 2.42044,2.42044 v 16.72302 h -1.1002 l -1.32024,-1.32024 z"
     class="g2_8"
     id="path1939"
     inkscape:connector-curvature="0"
     style="fill:#050606;stroke-width:2.20039725" />
  <path
     d="m 562.52192,321.19207 -2.42044,2.42044 H 549.0995 l -2.42044,-2.42044 z"
     class="g2_8"
     id="path1941"
     inkscape:connector-curvature="0"
     style="fill:#050606;stroke-width:2.20039725" />
  <path
     d="m 546.67906,377.08216 1.32024,1.32024 -1.32024,1.32023 h -35.64643 l -2.64048,-2.64047 z"
     class="g2_8"
     id="path1943"
     inkscape:connector-curvature="0"
     style="fill:#050606;stroke-width:2.20039725" />
  <path
     d="m 549.0995,395.12541 -2.42044,2.42044 v -17.82322 l 1.32024,-1.32023 h 1.1002 z"
     class="g2_8"
     id="path1945"
     inkscape:connector-curvature="0"
     style="fill:#050606;stroke-width:2.20039725" />
  <path
     d="m 560.10148,395.12541 2.42044,2.42044 h -15.84286 l 2.42044,-2.42044 z"
     class="g2_8"
     id="path1947"
     inkscape:connector-curvature="0"
     style="fill:#050606;stroke-width:2.20039725" />
  <path
     d="m 562.52192,397.54585 -2.42044,-2.42044 v -71.5129 l 2.42044,-2.42044 z"
     class="g2_8"
     id="path1949"
     inkscape:connector-curvature="0"
     style="fill:#050606;stroke-width:2.20039725" />
  <path
     d="m 559.6614,370.04089 h 3.3006 v -9.68175 h -3.3006 z"
     class="g4_8"
     id="path1951"
     inkscape:connector-curvature="0"
     style="fill:#ffffff;stroke-width:2.20039725" />
  <path
     d="m 559.6614,370.04089 h 3.3006 v -9.68175 h -3.3006 v -8.14147 h 3.3006 v -9.90179 l -3.3006,0.22004 z"
     class="g4_8"
     id="path1953"
     inkscape:connector-curvature="0"
     style="fill:#ffffff;stroke-width:2.20039725" />
  <path
     d="m 549.0995,378.4024 h -1.1002 l -1.32024,-1.32024 v -35.4264 l 1.32024,-1.32023 h 1.1002 z"
     class="g2_8"
     id="path1955"
     inkscape:connector-curvature="0"
     style="fill:#050606;stroke-width:2.20039725" />
  <path
     d="m 546.23898,370.26093 3.3006,-0.22004 v -9.68175 l -3.3006,0.22004 z"
     class="g4_8"
     id="path1957"
     inkscape:connector-curvature="0"
     style="fill:#ffffff;stroke-width:2.20039725" />
  <path
     d="m 546.23898,370.26093 3.3006,-0.22004 v -9.68175 l -3.3006,0.22004 v -8.36151 h 3.3006 v -9.68175 h -3.3006 z"
     class="g4_8"
     id="path1959"
     inkscape:connector-curvature="0"
     style="fill:#ffffff;stroke-width:2.20039725" />
  <path
     d="m 289.23259,460.47721 -2.42044,2.42044 h -8.14146 l 2.42043,-2.42044 z"
     class="g2_8"
     id="path1961"
     inkscape:connector-curvature="0"
     style="fill:#050606;stroke-width:2.20039725" />
  <path
     d="M 288.57247,493.04309 H 285.932 l 0.88015,-30.14544 2.42044,-2.42044 z"
     class="g2_8"
     id="path1963"
     inkscape:connector-curvature="0"
     style="fill:#050606;stroke-width:2.20039725" />
  <path
     d="m 502.011,462.89765 -2.64048,-2.42044 h 9.68175 l 2.64047,2.42044 z"
     class="g2_8"
     id="path1965"
     inkscape:connector-curvature="0"
     style="fill:#050606;stroke-width:2.20039725" />
  <path
     d="m 501.35088,494.14329 h -2.64048 l 0.66012,-33.66608 2.64048,2.42044 z"
     class="g2_8"
     id="path1967"
     inkscape:connector-curvature="0"
     style="fill:#050606;stroke-width:2.20039725" />
  <path
     d="m 508.39215,377.08216 2.64048,2.64047 0.66011,83.17502 -2.64047,-2.42044 z"
     class="g2_8"
     id="path1969"
     inkscape:connector-curvature="0"
     style="fill:#050606;stroke-width:2.20039725" />
  <path
     d="m 288.79251,474.77979 c 0,1.98036 -1.54028,3.52064 -3.52063,3.52064 -1.98036,0 -3.52064,-1.54028 -3.52064,-3.52064 0,-1.98036 1.54028,-3.52063 3.52064,-3.52063 1.98035,0 3.52063,1.54027 3.52063,3.52063 z"
     class="g2_8"
     id="path1971"
     inkscape:connector-curvature="0"
     style="fill:#050606;stroke-width:2.20039725" />
  <path
     d="m 288.79251,486.00182 c 0,1.98036 -1.54028,3.52063 -3.52063,3.52063 -1.98036,0 -3.52064,-1.54027 -3.52064,-3.52063 0,-1.76032 1.54028,-3.52064 3.52064,-3.52064 1.98035,0 3.52063,1.76032 3.52063,3.52064 z"
     class="g2_8"
     id="path1973"
     inkscape:connector-curvature="0"
     style="fill:#050606;stroke-width:2.20039725" />
  <path
     d="m 506.63183,474.77979 c 0,1.98036 -1.54028,3.52064 -3.52063,3.52064 -1.98036,0 -3.52064,-1.54028 -3.52064,-3.52064 0,-1.98036 1.54028,-3.52063 3.52064,-3.52063 1.98035,0 3.52063,1.54027 3.52063,3.52063 z"
     class="g2_8"
     id="path1975"
     inkscape:connector-curvature="0"
     style="fill:#050606;stroke-width:2.20039725" />
  <path
     d="m 506.63183,486.00182 c 0,1.98036 -1.54028,3.52063 -3.52063,3.52063 -1.98036,0 -3.52064,-1.54027 -3.52064,-3.52063 0,-1.76032 1.54028,-3.52064 3.52064,-3.52064 1.98035,0 3.52063,1.76032 3.52063,3.52064 z"
     class="g2_8"
     id="path1977"
     inkscape:connector-curvature="0"
     style="fill:#050606;stroke-width:2.20039725" />
  <path
     d="m 281.75124,847.96715 -2.64048,-2.42044 V 470.379 h 2.64048 z"
     class="g2_8"
     id="path1979"
     inkscape:connector-curvature="0"
     style="fill:#050606;stroke-width:2.20039725" />
  <path
     d="M 310.57644,639.3695 H 477.80663 V 289.72639 H 310.57644 Z m 44.88811,233.90222 H 434.4588 V 638.70938 H 355.46455 Z M 319.37803,639.3695 c -3.08055,0.44008 -3.08055,3.74067 0,4.40079 3.08056,0.66012 3.08056,3.96072 0,4.4008 -3.08055,0.66012 -3.08055,3.96071 0,4.62083 3.08056,0.66012 3.08056,3.96072 0,4.4008 -3.08055,0.66012 -3.08055,3.96071 0,4.62083 3.08056,0.66012 3.08056,3.96072 0,4.40079 m 145.00618,-25.5246 c -2.86052,0.44008 -2.86052,3.52063 0,4.18075 2.64047,0.66012 2.64047,3.74068 0,4.18076 -2.86052,0.66012 -2.86052,3.74067 0,4.18075 2.64047,0.66012 2.64047,3.74068 0,4.4008 -2.86052,0.44008 -2.86052,3.52063 0,4.18075 2.64047,0.66012 2.64047,3.74068 0,4.18076 M 355.46455,873.27172 H 434.4588 V 846.42687 H 355.46455 Z M 314.97724,640.68974 c -2.86052,0.44008 -2.86052,3.74067 0,4.40079 3.08055,0.66012 3.08055,3.96072 0,4.4008 -2.86052,0.66012 -2.86052,3.96071 0,4.62083 3.08055,0.66012 3.08055,3.74068 0,4.40079 -2.86052,0.66012 -2.86052,3.96072 0,4.4008 3.08055,0.66012 3.08055,3.96071 0,4.62083 m 155.128,-26.84484 c -2.64048,0.44008 -2.64048,3.52063 0,4.18075 2.86051,0.66012 2.86051,3.74068 0,4.18076 -2.64048,0.66012 -2.64048,3.74067 0,4.18075 2.86051,0.66012 2.86051,3.74068 0,4.4008 -2.64048,0.44008 -2.64048,3.52063 0,4.18075 2.86051,0.66012 2.86051,3.74068 0,4.18076"
     class="g3_8"
     id="path1981"
     inkscape:connector-curvature="0"
     style="fill:none;stroke:#050606;stroke-width:3.81218791;stroke-linecap:butt;stroke-linejoin:miter;stroke-miterlimit:4" />
  <path
     d="m 313.43696,667.53458 h 2.64048 v 211.67821 h -2.64048 z"
     class="g2_8"
     id="path1983"
     inkscape:connector-curvature="0"
     style="fill:#050606;stroke-width:2.20039725" />
  <path
     d="m 471.86556,883.61358 -2.64048,0.22004 -0.22004,-217.83931 h 2.42044 z"
     class="g2_8"
     id="path1985"
     inkscape:connector-curvature="0"
     style="fill:#050606;stroke-width:2.20039725" />
  <path
     d="m 358.10502,863.81001 v -4.62083 m 5.72104,4.62083 v -4.62083 m 5.50099,4.62083 v -4.62083 m 5.72103,4.62083 v -4.62083 m 5.72103,4.62083 v -4.62083 m 5.501,4.62083 v -4.62083 m 5.72103,4.62083 v -4.62083 m 5.72103,4.62083 v -4.62083 m 5.50099,4.62083 v -4.62083 m 5.72104,4.62083 v -4.62083 m 5.72103,4.62083 v -4.62083 m 5.50099,4.62083 v -4.62083 m 5.72104,4.62083 v -4.62083 m 5.50099,4.62083 v -4.62083 m -73.27323,-1.54028 v -4.62084 m 5.72104,4.62084 v -4.62084 m 5.50099,4.62084 v -4.62084 m 5.72103,4.62084 v -4.62084 m 5.72103,4.62084 v -4.62084 m 5.501,4.62084 v -4.62084 m 5.72103,4.62084 v -4.62084 m 5.72103,4.62084 v -4.62084 m 5.50099,4.62084 v -4.62084 m 5.72104,4.62084 v -4.62084 m 5.72103,4.62084 v -4.62084 m 5.50099,4.62084 v -4.62084 m 5.72104,4.62084 v -4.62084 m 5.50099,4.62084 v -4.62084 m -73.27323,13.42243 v -4.18076 m 5.72104,4.18076 v -4.18076 m 5.50099,4.18076 v -4.18076 m 5.72103,4.18076 v -4.18076 m 5.72103,4.18076 v -4.18076 m 5.501,4.18076 v -4.18076 m 5.72103,4.18076 v -4.18076 m 5.72103,4.18076 v -4.18076 m 5.50099,4.18076 v -4.18076 m 5.72104,4.18076 v -4.18076 m 5.72103,4.18076 v -4.18076 m 5.50099,4.18076 v -4.18076 m 5.72104,4.18076 v -4.18076 m 5.50099,4.18076 v -4.18076"
     class="g3_8"
     id="path1987"
     inkscape:connector-curvature="0"
     style="fill:none;stroke:#050606;stroke-width:3.81218791;stroke-linecap:butt;stroke-linejoin:miter;stroke-miterlimit:4" />
  <path
     d="m 390.89094,873.7118 h 4.62083 v 67.33215 h -4.62083 z"
     class="g2_8"
     id="path1989"
     inkscape:connector-curvature="0"
     style="fill:#050606;stroke-width:2.20039725" />
  <path
     d="m 395.51177,872.6116 h 4.4008 v 68.43235 h -4.4008 z"
     class="g2_8"
     id="path1991"
     inkscape:connector-curvature="0"
     style="fill:#050606;stroke-width:2.20039725" />
  <path
     d="m 316.07744,959.96737 -2.64048,2.64047 v -27.28492 h 2.64048 z"
     class="g2_8"
     id="path1993"
     inkscape:connector-curvature="0"
     style="fill:#050606;stroke-width:2.20039725" />
  <path
     d="m 470.32528,959.96737 2.64047,2.64047 H 313.43696 l 2.64048,-2.64047 z"
     class="g2_8"
     id="path1995"
     inkscape:connector-curvature="0"
     style="fill:#050606;stroke-width:2.20039725" />
  <path
     d="m 470.32528,937.52331 h 2.64047 v 25.08453 l -2.64047,-2.64047 z"
     class="g2_8"
     id="path1997"
     inkscape:connector-curvature="0"
     style="fill:#050606;stroke-width:2.20039725" />
  <path
     d="m 269.42902,847.96715 -2.64048,-2.42044 h 12.32222 l 2.64048,2.42044 z"
     class="g2_8"
     id="path1999"
     inkscape:connector-curvature="0"
     style="fill:#050606;stroke-width:2.20039725" />
  <path
     d="m 269.42902,873.7118 h -2.64048 v -28.16509 l 2.64048,2.42044 z"
     class="g2_8"
     id="path2001"
     inkscape:connector-curvature="0"
     style="fill:#050606;stroke-width:2.20039725" />
  <path
     d="m 270.52922,985.93205 -2.64048,2.42044 v -51.92937 h 2.64048 z"
     class="g2_8"
     id="path2003"
     inkscape:connector-curvature="0"
     style="fill:#050606;stroke-width:2.20039725" />
  <path
     d="m 508.83223,844.44651 -2.64048,2.42044 V 469.2788 h 2.64048 z"
     class="g2_8"
     id="path2005"
     inkscape:connector-curvature="0"
     style="fill:#050606;stroke-width:2.20039725" />
  <path
     d="m 521.15445,844.44651 -2.42043,2.42044 h -12.54227 l 2.64048,-2.42044 z"
     class="g2_8"
     id="path2007"
     inkscape:connector-curvature="0"
     style="fill:#050606;stroke-width:2.20039725" />
  <path
     d="m 521.15445,872.6116 h -2.42043 v -25.74465 l 2.42043,-2.42044 z"
     class="g2_8"
     id="path2009"
     inkscape:connector-curvature="0"
     style="fill:#050606;stroke-width:2.20039725" />
  <path
     d="m 520.05425,988.79257 -2.64047,-2.42044 v -51.04921 h 2.64047 z"
     class="g2_8"
     id="path2011"
     inkscape:connector-curvature="0"
     style="fill:#050606;stroke-width:2.20039725" />
  <path
     d="m 517.41378,986.37213 2.64047,2.42044 -252.16551,-0.44008 2.64048,-2.42044 z"
     class="g2_8"
     id="path2013"
     inkscape:connector-curvature="0"
     style="fill:#050606;stroke-width:2.20039725" />
  <path
     d="m 252.04588,945.66478 h 15.18274 v -77.89406 h -15.18274 z m 269.32861,-3.30059 h 14.9627 v -77.45398 h -14.9627 z"
     class="g5_8"
     id="path2015"
     inkscape:connector-curvature="0"
     style="fill:none;stroke:#050606;stroke-width:3.81218791;stroke-linecap:butt;stroke-linejoin:miter;stroke-miterlimit:4;stroke-dasharray:8.80158864" />
  <path
     d="m 475.16615,346.71668 0.44008,2.42043 -163.92959,44.00795 -0.44008,-2.42044 z"
     class="g2_8"
     id="path2017"
     inkscape:connector-curvature="0"
     style="fill:#050606;stroke-width:2.20039725" />
  <path
     d="m 475.16615,364.53989 0.44008,2.64048 -163.92959,43.7879 -0.44008,-2.42043 z"
     class="g2_8"
     id="path2019"
     inkscape:connector-curvature="0"
     style="fill:#050606;stroke-width:2.20039725" />
  <path
     d="m 476.04631,382.58315 0.66012,2.42044 -163.92959,43.7879 -0.44008,-2.2004 z"
     class="g2_8"
     id="path2021"
     inkscape:connector-curvature="0"
     style="fill:#050606;stroke-width:2.20039725" />
  <path
     d="m 476.04631,405.0272 0.66012,2.42044 -163.92959,43.7879 -0.44008,-2.20039 z"
     class="g2_8"
     id="path2023"
     inkscape:connector-curvature="0"
     style="fill:#050606;stroke-width:2.20039725" />
  <path
     d="m 474.94611,426.37105 0.66012,2.42044 -163.92959,43.7879 -0.44008,-2.42043 z"
     class="g2_8"
     id="path2025"
     inkscape:connector-curvature="0"
     style="fill:#050606;stroke-width:2.20039725" />
  <path
     d="m 474.94611,447.49487 0.66012,2.64047 -163.92959,43.78791 -0.44008,-2.42044 z"
     class="g2_8"
     id="path2027"
     inkscape:connector-curvature="0"
     style="fill:#050606;stroke-width:2.20039725" />
  <path
     d="m 474.94611,469.93892 0.66012,2.64047 -163.92959,43.78791 -0.44008,-2.42044 z"
     class="g2_8"
     id="path2029"
     inkscape:connector-curvature="0"
     style="fill:#050606;stroke-width:2.20039725" />
  <path
     d="m 474.94611,489.08237 0.66012,2.42044 -163.92959,43.7879 -0.44008,-2.20039 z"
     class="g2_8"
     id="path2031"
     inkscape:connector-curvature="0"
     style="fill:#050606;stroke-width:2.20039725" />
  <path
     d="m 474.94611,509.32603 0.66012,2.42043 -163.92959,43.78791 -0.44008,-2.42044 z"
     class="g2_8"
     id="path2033"
     inkscape:connector-curvature="0"
     style="fill:#050606;stroke-width:2.20039725" />
  <path
     d="m 474.94611,532.65024 0.66012,2.64047 -163.92959,43.78791 -0.44008,-2.42044 z"
     class="g2_8"
     id="path2035"
     inkscape:connector-curvature="0"
     style="fill:#050606;stroke-width:2.20039725" />
  <path
     d="m 474.94611,556.19449 0.66012,2.64047 -163.92959,43.78791 -0.44008,-2.42044 z"
     class="g2_8"
     id="path2037"
     inkscape:connector-curvature="0"
     style="fill:#050606;stroke-width:2.20039725" />
  <path
     d="m 474.94611,577.53834 0.66012,2.42044 -163.92959,43.7879 -0.44008,-2.2004 z"
     class="g2_8"
     id="path2039"
     inkscape:connector-curvature="0"
     style="fill:#050606;stroke-width:2.20039725" />
  <path
     d="m 474.94611,596.68179 0.66012,2.42044 -146.98653,40.48731 -0.66012,-2.42044 z"
     class="g2_8"
     id="path2041"
     inkscape:connector-curvature="0"
     style="fill:#050606;stroke-width:2.20039725" />
  <path
     d="m 474.72607,618.24569 0.66012,2.20039 -119.92164,32.56588 -0.66012,-2.42043 z"
     class="g2_8"
     id="path2043"
     inkscape:connector-curvature="0"
     style="fill:#050606;stroke-width:2.20039725" />
  <path
     d="m 433.79868,647.29093 0.66012,2.42044 -78.99425,21.12381 -0.66012,-2.2004 z"
     class="g2_8"
     id="path2045"
     inkscape:connector-curvature="0"
     style="fill:#050606;stroke-width:2.20039725" />
  <path
     d="m 433.79868,665.11415 0.66012,2.64047 -78.99425,21.12382 -0.66012,-2.42044 z"
     class="g2_8"
     id="path2047"
     inkscape:connector-curvature="0"
     style="fill:#050606;stroke-width:2.20039725" />
  <path
     d="m 433.79868,685.3578 0.66012,2.42044 -78.99425,21.12381 -0.66012,-2.2004 z"
     class="g2_8"
     id="path2049"
     inkscape:connector-curvature="0"
     style="fill:#050606;stroke-width:2.20039725" />
  <path
     d="m 433.79868,703.40106 0.66012,2.42043 -78.99425,21.12382 -0.66012,-2.42044 z"
     class="g2_8"
     id="path2051"
     inkscape:connector-curvature="0"
     style="fill:#050606;stroke-width:2.20039725" />
  <path
     d="m 433.79868,721.22427 0.66012,2.42044 -78.99425,21.12381 -0.66012,-2.20039 z"
     class="g2_8"
     id="path2053"
     inkscape:connector-curvature="0"
     style="fill:#050606;stroke-width:2.20039725" />
  <path
     d="m 433.79868,739.04749 0.66012,2.64048 -78.99425,21.12381 -0.66012,-2.42044 z"
     class="g2_8"
     id="path2055"
     inkscape:connector-curvature="0"
     style="fill:#050606;stroke-width:2.20039725" />
  <path
     d="m 433.79868,759.29114 0.66012,2.42044 -78.99425,21.34385 -0.66012,-2.42043 z"
     class="g2_8"
     id="path2057"
     inkscape:connector-curvature="0"
     style="fill:#050606;stroke-width:2.20039725" />
  <path
     d="m 433.79868,778.4346 0.66012,2.42044 -78.99425,21.12381 -0.66012,-2.42044 z"
     class="g2_8"
     id="path2059"
     inkscape:connector-curvature="0"
     style="fill:#050606;stroke-width:2.20039725" />
  <path
     d="m 433.79868,797.35802 0.66012,2.42043 -78.99425,21.34385 -0.66012,-2.42043 z"
     class="g2_8"
     id="path2061"
     inkscape:connector-curvature="0"
     style="fill:#050606;stroke-width:2.20039725" />
  <path
     d="m 433.79868,815.40127 0.66012,2.42044 -78.99425,21.12381 -0.66012,-2.42044 z"
     class="g2_8"
     id="path2063"
     inkscape:connector-curvature="0"
     style="fill:#050606;stroke-width:2.20039725" />
  <path
     d="m 434.01872,832.12429 0.44008,2.42044 -52.14941,12.32222 -0.66012,-2.42044 z"
     class="g2_8"
     id="path2065"
     inkscape:connector-curvature="0"
     style="fill:#050606;stroke-width:2.20039725" />
  <path
     d="m 590.46696,345.83652 v 2.42044 l -114.86073,0.88015 -0.44008,-2.42043 z"
     class="g2_8"
     id="path2067"
     inkscape:connector-curvature="0"
     style="fill:#050606;stroke-width:2.20039725" />
  <path
     d="m 590.46696,363.65974 v 2.64047 l -114.86073,0.88016 -0.44008,-2.64048 z"
     class="g2_8"
     id="path2069"
     inkscape:connector-curvature="0"
     style="fill:#050606;stroke-width:2.20039725" />
  <path
     d="M 111.66054,112.37438 98.898237,99.832116 v 6.381154 H 74.473829 v 12.7623 h 24.424408 v 6.16111 z m -38.726989,109.35974 12.762303,12.54226 v -6.16111 H 110.12026 V 215.13293 H 85.695854 v -6.16111 z"
     class="g3_8"
     id="path2071"
     inkscape:connector-curvature="0"
     style="fill:none;stroke:#050606;stroke-width:3.81218791;stroke-linecap:butt;stroke-linejoin:miter;stroke-miterlimit:4" />
  <path
     d="M 281.5312,517.4675 H 245.44469"
     class="g6_8"
     id="path2073"
     inkscape:connector-curvature="0"
     style="fill:none;stroke:#050606;stroke-width:3.04907823;stroke-linecap:butt;stroke-linejoin:miter;stroke-miterlimit:4" />
  <path
     d="m 314.7572,517.4675 -37.40675,-9.24167 c 2.64047,2.42044 4.18075,5.72103 4.18075,9.24167 0,3.52063 -1.54028,6.82123 -4.18075,9.02163 z"
     class="g2_8"
     id="path2075"
     inkscape:connector-curvature="0"
     style="fill:#050606;stroke-width:2.20039725" />
  <path
     d="M 319.59807,741.46793 H 258.86711"
     class="g6_8"
     id="path2077"
     inkscape:connector-curvature="0"
     style="fill:none;stroke:#050606;stroke-width:3.04907823;stroke-linecap:butt;stroke-linejoin:miter;stroke-miterlimit:4" />
  <path
     d="m 353.04411,741.46793 -37.62679,-9.02163 c 2.64047,2.2004 4.18075,5.50099 4.18075,9.02163 0,3.52063 -1.54028,6.82123 -4.18075,9.24167 z"
     class="g2_8"
     id="path2079"
     inkscape:connector-curvature="0"
     style="fill:#050606;stroke-width:2.20039725" />
  <path
     d="m 540.95803,591.40084 h 16.0629"
     class="g6_8"
     id="path2081"
     inkscape:connector-curvature="0"
     style="fill:none;stroke:#050606;stroke-width:3.04907823;stroke-linecap:butt;stroke-linejoin:miter;stroke-miterlimit:4" />
  <path
     d="m 507.51199,591.40084 37.62679,9.02163 c -2.64048,-2.2004 -4.18075,-5.50099 -4.18075,-9.02163 0,-3.52063 1.54027,-6.82123 4.18075,-9.24167 z"
     class="g2_8"
     id="path2083"
     inkscape:connector-curvature="0"
     style="fill:#050606;stroke-width:2.20039725" />
  <path
     d="m 497.6102,741.46793 h 56.99029"
     class="g6_8"
     id="path2085"
     inkscape:connector-curvature="0"
     style="fill:none;stroke:#050606;stroke-width:3.04907823;stroke-linecap:butt;stroke-linejoin:miter;stroke-miterlimit:4" />
  <path
     d="m 464.16417,741.46793 37.62679,9.24167 c -2.64048,-2.42044 -4.18076,-5.72104 -4.18076,-9.24167 0,-3.52064 1.54028,-6.82123 4.18076,-9.02163 z"
     class="g2_8"
     id="path2087"
     inkscape:connector-curvature="0"
     style="fill:#050606;stroke-width:2.20039725" />
  <path
     d="M 343.80244,901.65684 274.70997,1021.5785"
     class="g6_8"
     id="path2089"
     inkscape:connector-curvature="0"
     style="fill:none;stroke:#050606;stroke-width:3.04907823;stroke-linecap:butt;stroke-linejoin:miter;stroke-miterlimit:4" />
  <path
     d="m 360.30542,872.83164 -26.62481,27.94504 c 3.3006,-1.1002 7.04128,-0.88016 9.90179,0.88016 3.08056,1.76032 5.28095,4.84087 5.94107,8.36151 z"
     class="g2_8"
     id="path2091"
     inkscape:connector-curvature="0"
     style="fill:#050606;stroke-width:2.20039725" />
  <path
     d="m 423.67686,965.46836 32.56588,56.11014"
     class="g6_8"
     id="path2093"
     inkscape:connector-curvature="0"
     style="fill:none;stroke:#050606;stroke-width:3.04907823;stroke-linecap:butt;stroke-linejoin:miter;stroke-miterlimit:4" />
  <path
     d="m 406.7338,936.42312 11.00199,37.18671 c 0.66011,-3.52064 2.64047,-6.60119 5.72103,-8.36151 3.08055,-1.76032 6.82123,-1.98036 10.12183,-0.88016 z"
     class="g2_8"
     id="path2095"
     inkscape:connector-curvature="0"
     style="fill:#050606;stroke-width:2.20039725" />
  <path
     d="M 565.60247,905.17748 H 592.8874"
     class="g6_8"
     id="path2097"
     inkscape:connector-curvature="0"
     style="fill:none;stroke:#050606;stroke-width:3.04907823;stroke-linecap:butt;stroke-linejoin:miter;stroke-miterlimit:4" />
  <path
     d="m 532.15644,905.17748 37.62679,9.02162 c -2.64048,-2.20039 -4.18076,-5.50099 -4.18076,-9.02162 0,-3.52064 1.54028,-7.04127 4.18076,-9.24167 z"
     class="g2_8"
     id="path2099"
     inkscape:connector-curvature="0"
     style="fill:#050606;stroke-width:2.20039725" />
  <path
     d="m 126.84328,362.77958 12.54227,12.7623 v -6.16111 h 24.64444 v -12.98235 h -24.64444 v -6.16111 z m 515.99314,-3.74068 -12.98235,-12.54226 v 6.16111 h -24.42441 v 12.7623 h 24.42441 v 6.38116 z M 253.8062,31.839844 H 536.11715 V 289.72639 H 253.8062 Z"
     class="g3_8"
     id="path2101"
     inkscape:connector-curvature="0"
     style="fill:none;stroke:#050606;stroke-width:3.81218791;stroke-linecap:butt;stroke-linejoin:miter;stroke-miterlimit:4" />
  <defs
     id="defs2820">
    <path
       d="M291.8,73.3c33.6,0,81,19.9,94.7,27.5c47.4,23,52,41.3,52,87.1l0,221.5C207.8,333.1,191,247.5,191,195.6l0,-3.1C191,120.7,235.3,73.3,291.8,73.3Zm-73.3,-87c-82.5,0,-162,55,-162,157.3c0,152.8,132.9,204.7,382,302.5l0,93.2c0,110,-71.8,126.8,-117.7,126.8c-50.4,0,-108.4,-27.5,-108.4,-74.8c0,-23,7.6,-45.9,7.6,-59.6C220,499.6,191,466,151.3,466c-47.4,0,-65.7,42.8,-65.7,67.2c0,61.1,71.8,169.6,249,169.6C562.2,702.8,562.2,550,562.2,458.3l0,-297.9c0,-44.3,0,-88.6,44.3,-88.6c32.1,0,52,15.3,68.8,29l0,-39.7C611.1,-12.1,563.8,-13.7,539.3,-13.7c-27.5,0,-91.7,1.6,-99.3,110C383.5,45.8,302.5,-13.7,218.5,-13.7Z"
       id="f0_1j"
       transform="scale(0.001,-0.001)" />
    <path
       d="M383.5,64.2c64.1,0,123.7,36.6,135.9,91.6l0,351.4C508.8,611.1,433.9,660,362.1,660C276.5,660,172.6,585.1,172.6,377.4c0,-227.7,110,-313.2,210.9,-313.2ZM319.3,-13.7c-59.6,0,-278,29,-278,340.6c0,200.2,145.1,375.9,316.2,375.9c65.7,0,111.5,-21.4,161.9,-65.7l0,238.3c0,45.9,0,77.9,-67.2,77.9c-9.1,0,-24.4,0,-36.6,-1.5l0,24.5c76.3,19.8,151.2,41.2,224.5,67.2l7.7,-3.1l0,-866.2c0,-56.4,0,-86.7,74.4,-86.7c8.3,0,17.6,0.3,27.9,1.1l0,-24.4C676.8,38.2,606.5,13.8,525.6,-13.7l-6.2,4.6l0,91.6l-3,0C488.9,41.3,432.4,-13.7,319.3,-13.7Z"
       id="f0_1m"
       transform="scale(0.001,-0.001)" />
    <path
       d="M462.9,472.1c-10.7,73.3,-26,175.7,-146.6,175.7c-84.1,0,-143.7,-41.3,-168.1,-175.7ZM323.9,-13.7C154.3,-13.7,38.2,110,38.2,326.9c0,282.7,189.4,375.9,311.7,375.9c143.6,0,252,-79.5,268.9,-279.6l-475.2,0C161.9,152.8,285.7,90.1,386.5,90.1c136,0,201.7,103.9,236.8,160.5l24.5,-10.7C632.5,192.5,543.9,-13.7,323.9,-13.7Z"
       id="f0_1n"
       transform="scale(0.001,-0.001)" />
    <path
       d="M247.5,-13.7C169.6,-13.7,106.9,26,106.9,178.8l0,459.8l-80.9,0c-3.1,1.5,-6.1,6.1,-6.1,10.7c0,18.3,33.6,27.5,67.2,61.1c58,59.6,81,93.2,137.5,174.2c10.7,0,10.7,-7.7,10.7,-19.9l0,-177.2l154.3,0l0,-48.9l-154.3,0l0,-436.9c0,-47.4,0,-137.5,77.9,-137.5c48.9,0,76.4,33.6,93.2,53.4l19.9,-16.8C389.6,35.1,317.8,-13.7,247.5,-13.7Z"
       id="f0_22"
       transform="scale(0.001,-0.001)" />
    <path
       d="M323.9,-13.7C201.7,-13.7,38.2,84,38.2,325.4c0,250.6,177.2,377.4,342.2,377.4c55,0,123.8,-22.9,162,-47.4C588.2,623.3,608.1,576,608.1,548.5c0,-35.2,-24.5,-64.2,-70.3,-67.2c-1.5,-0.2,-2.9,-0.2,-4.3,-0.2c-37.3,0,-61.8,38,-70.6,70.4l-9.1,33.6C441.5,631,433.9,658.5,352.9,658.5c-56.5,0,-197.1,-47.4,-197.1,-272C155.8,210.8,261.3,94.7,389.6,94.7c110,0,166.5,65.7,218.5,143.6l21.3,-13.7C546.9,50.4,447.6,-13.7,323.9,-13.7Z"
       id="f0_1l"
       transform="scale(0.001,-0.001)" />
    <path
       d="M13.8,0l0,22.9c82.5,10.7,97.7,21.4,97.7,132.9l0,719.6c0,45.9,0,77.9,-67.2,77.9c-9.2,0,-24.4,0,-29,-1.5l0,24.5c68.7,19.8,143.6,41.2,216.9,67.2l7.7,-4.6l0,-461.4l3,0c53.5,76.4,128.4,125.3,220,125.3C650.8,702.8,652.4,521,652.4,459.9l0,-304.1C652.4,44.3,667.6,36.7,744,22.9L744,0L420.1,0l0,22.9C495,30.6,524,38.2,524,155.8l0,302.5c0,102.4,-33.6,162,-117.6,162C362.1,620.3,302.5,597.4,239.9,524l0,-368.2c0,-117.6,29,-125.2,103.9,-132.9L343.8,0Z"
       id="f0_1q"
       transform="scale(0.001,-0.001)" />
    <path
       d="M380.4,33.6c175.7,0,200.2,172.7,200.2,273.5c0,142.1,-55,299.4,-194.1,299.4C337.6,606.5,239.9,579,233.8,491.9l0,-385c0,-53.4,108.4,-73.3,146.6,-73.3ZM342.2,-13.7C265.8,-13.7,105.4,26,105.4,82.5l0,792.9c0,45.9,0,77.9,-67.2,77.9c-9.2,0,-24.4,0,-33.6,-1.5l0,24.5c73.3,19.8,148.2,41.2,221.5,67.2l7.7,-3.1l0,-461.4l3,0c9.2,35.2,90.1,123.8,206.3,123.8C627.9,702.8,715,527.1,715,363.6C715,226.1,624.9,-13.7,342.2,-13.7Z"
       id="f0_1k"
       transform="scale(0.001,-0.001)" />
    <path
       d="M32.1,0l0,22.9c90.1,6.1,117.6,26,117.6,110l0,728.8c0,68.7,-9.1,93.2,-68.7,93.2c-19.9,0,-33.6,-1.6,-52,-3.1l0,24.5c81,19.8,162,41.2,242.9,67.2l6.2,-3.1l0,-912.1C278.1,39.7,304,27.5,392.6,22.9L392.6,0Z"
       id="f0_1u"
       transform="scale(0.001,-0.001)" />
    <path
       d="M68.8,0L192.5,446.1c15.3,56.5,24.4,108.5,24.4,122.2c0,21.4,-7.6,45.9,-55,45.9c-16.8,0,-33.6,-4.6,-50.4,-7.7l0,26c77.9,10.7,168.1,30.6,236.8,41.3l4.6,-3.1l-74.8,-304l3,-3.1l12.2,30.6C343.8,495,459.9,673.8,556.1,673.8c35.2,0,73.3,-23,73.3,-74.9c0,-79.5,-55,-79.5,-71.8,-79.5c-65.7,0,-42.7,55,-79.4,55c-47.4,0,-139,-169.5,-151.3,-192.5C268.9,271.9,247.5,203.2,184.9,0Z"
       id="f1_1i"
       transform="scale(0.001,-0.001)" />
    <path
       d="M246,58.1c161.9,0,311.6,330,311.6,479.7c0,73.3,-42.7,102.3,-87,102.3C291.8,640.1,154.3,304,154.3,166.5C154.3,85.6,204.7,58.1,246,58.1ZM183.3,-15.2C30.6,-15.2,26,119.2,26,163.5c0,224.6,233.7,510.3,436.9,510.3c65.7,0,116.1,-39.8,120.7,-82.5l3.1,0l15.2,67.2l4.6,4.6l93.2,10.7l10.7,-4.6C705.8,650.8,565.3,129.9,565.3,82.5c0,-10.7,9.1,-19.9,21.4,-19.9c22.9,0,53.4,38.2,122.2,105.5l18.3,-15.3C635.6,39.7,583.6,-13.7,517.9,-13.7c-64.1,0,-64.1,38.1,-64.1,64.1c0,35.2,7.6,68.8,32,162l-3,3C356,29,275,-15.2,183.3,-15.2Z"
       id="f1_12"
       transform="scale(0.001,-0.001)" />
    <path
       d="M249,56.5c145.2,0,294.9,290.3,294.9,479.8c0,35.1,0,102.3,-71.8,102.3c-171.1,0,-316.3,-330,-316.3,-469c0,-26,0,-113.1,93.2,-113.1ZM510.3,-18.2c-59.6,0,-71.8,36.5,-71.8,68.6c0,35.2,6.1,70.3,18.3,123.8l-3,3C343.8,9.2,258.2,-15.2,181.8,-15.2C55,-15.2,22.9,84,22.9,163.5c0,230.7,259.7,510.3,441.5,510.3c85.6,0,96.3,-50.5,102.4,-84.1l3.1,3.1l65.7,242.9c12.2,42.8,22.9,81,22.9,102.4c0,35.1,-10.7,42.7,-94.7,44.3l0,25.9c77.9,7.7,155.8,18.4,233.7,35.2l7.6,-7.7C739.4,770,554.6,119.2,554.6,94.7c0,-22.9,12.2,-33.6,27.5,-33.6c30.5,0,61.1,35.2,125.3,108.5l18.3,-15.3C660,51.9,560.7,-18.2,510.3,-18.2Z"
       id="f1_15"
       transform="scale(0.001,-0.001)" />
    <path
       d="M146.7,-15.2c-71.8,0,-71.8,65.6,-71.8,93.1c0,71.8,120.7,450.7,120.7,493.5c0,32.1,-12.3,39.7,-96.3,39.7l0,24.5c58.1,3,184.9,27.5,244.5,38.2l4.5,-3.1L213.9,178.8C207.8,157.4,189.4,96.3,189.4,77.9C189.4,67.2,200.1,55,213.9,55c18.3,0,62.6,30.6,125.3,119.2L359,157.4C299.4,67.2,232.2,-15.2,146.7,-15.2ZM328.5,837.2c-38.2,0,-73.4,26,-73.4,79.5c0,53.4,35.2,82.5,71.8,82.5c50.5,0,76.4,-50.4,76.4,-84.1c0,-30.5,-24.4,-77.9,-74.8,-77.9Z"
       id="f1_1a"
       transform="scale(0.001,-0.001)" />
    <path
       d="M129.9,-15.2C99.3,-15.2,56.5,0,56.5,44.3c0,22.9,29.1,116.1,35.2,140.6L201.7,605L88.6,605c-1.5,9.2,-1.5,16.8,3.1,24.4c9.1,13.8,51.9,24.5,77.9,38.2c50.4,26,123.7,94.8,166.5,148.2c5.5,6.9,11,18.8,22.2,18.8c1.2,0,2.4,-0.1,3.8,-0.4c1,0.3,2,0.4,2.9,0.4c8.3,0,10.5,-12.3,7.8,-23.3L330,653.9l122.2,0L444.6,605l-128.3,0L181.8,96.3C180.3,91.7,180.3,88.6,180.3,84c0,-13.7,7.6,-25.9,24.4,-25.9c30.6,0,84.1,71.8,122.2,120.7l19.9,-10.7C268.9,50.4,209.3,-15.2,129.9,-15.2Z"
       id="f1_1k"
       transform="scale(0.001,-0.001)" />
    <path
       d="M291.8,15.3C466,15.3,586.7,331.5,586.7,495c0,79.4,-33.6,146.7,-107,146.7C308.6,641.7,169.6,337.6,169.6,157.4C169.6,70.3,215.4,15.3,291.8,15.3ZM271.9,-15.2C110,-15.2,41.3,76.4,41.3,203.2c0,224.6,226.1,470.6,449.1,470.6C667.6,673.8,715,548.5,715,447.6C715,259.7,505.7,-15.2,271.9,-15.2Z"
       id="f1_1f"
       transform="scale(0.001,-0.001)" />
    <path
       d="M511.8,-12.1c-70.3,0,-73.3,44.2,-73.3,88.5c0,36.7,113,409.4,113,470.5c0,27.5,-9.1,48.9,-38.2,48.9C440,595.8,343.8,464.4,288.8,378.9C218.5,273.5,198.6,207.8,136,0L21.4,0C68.8,172.6,171.1,530.1,171.1,562.2c0,22.9,-15.3,39.7,-97.8,39.7l0,24.5c82.5,15.3,165,30.5,247.5,47.4l4.6,-3.1L227.6,351.4l3.1,-3.1c71.8,113.1,212.4,325.5,339.2,325.5c70.2,0,105.4,-36.7,105.4,-100.9C675.3,507.2,553.1,129.9,553.1,84c0,-22.9,21.3,-25.9,24.4,-25.9c30.6,0,68.8,48.8,125.3,120.7l21.4,-19.9C647.8,56.5,594.3,-12.1,511.8,-12.1Z"
       id="f1_1e"
       transform="scale(0.001,-0.001)" />
    <path
       d="M24.4,-18.2L55,223.1l24.4,0C90.1,155.8,114.6,15.3,238.3,15.3c85.6,0,110,73.3,110,123.7c0,100.9,-181.8,247.5,-181.8,365.2c0,47.3,21.4,169.6,183.4,169.6c68.7,0,99.3,-26,145.1,-26c26,0,35.1,15.3,42.8,27.5l21.4,0L528.6,462.9l-24.4,0C496.5,550,459.9,638.6,360.6,638.6c-33.7,0,-82.5,-13.7,-82.5,-88.6c0,-96.2,186.3,-232.2,186.3,-362.1C464.4,21.4,322.4,-15.2,236.8,-15.2C191,-15.2,129.9,12.2,85.6,12.2C64.2,12.2,58.1,-1.4,48.9,-18.2Z"
       id="f1_1j"
       transform="scale(0.001,-0.001)" />
    <path
       d="M508.8,-12.1C459.9,-12.1,440,15.3,440,56.5c0,39.8,125.3,478.2,125.3,498.1c0,26,-19.9,41.2,-44.3,41.2C444.6,595.8,316.3,423.2,285.7,380.4C216.9,276.5,194,192.5,143.6,0L29,0L230.7,765.4c16.8,64.2,41.2,151.3,41.2,174.2c0,18.3,-12.2,38.2,-62.6,39.7l-39.7,-1.5l0,24.4c79.4,9.2,160.4,22.9,239.8,41.3l7.7,-7.7L236.8,365.1l3.1,-3c47.3,76.4,203.2,311.7,340.7,311.7c33.6,0,103.8,-10.7,103.8,-110C684.4,510.3,560.7,119.2,560.7,87.1c0,-18.3,12.2,-29,24.4,-29c30.6,0,67.3,47.3,125.3,120.7l19.9,-18.4C675.3,81,609.6,-12.1,508.8,-12.1Z"
       id="f1_19"
       transform="scale(0.001,-0.001)" />
    <path
       d="M206.3,317.8C521,381.9,528.6,565.3,528.6,577.5c0,32.1,-15.3,61.1,-53.5,61.1C392.6,638.6,288.8,521,232.2,385L206.3,317.8Zm50.4,-333C96.3,-15.2,47.4,102.4,47.4,198.6c0,218.5,241.4,475.2,456.8,475.2c77.9,0,125.2,-36.7,125.2,-103.9C629.4,449.2,485.8,325.4,238.3,290.3l-42.7,-6.1C187.9,252.1,180.3,221.5,180.3,191C180.3,87.1,259.7,51.9,323.9,51.9c82.5,0,146.7,52,223,114.6l18.4,-18.3C548.5,123.8,409.4,-15.2,256.7,-15.2Z"
       id="f1_16"
       transform="scale(0.001,-0.001)" />
    <path
       d="M136,-15.2c-67.2,0,-73.4,50.3,-73.4,93.1c0,32.1,221.6,829.6,221.6,861.7c0,33.2,-44.9,38.6,-82.8,38.6c-7.4,0,-14.6,-0.2,-21.1,-0.4l0,24.4c79.4,9.2,158.9,22.9,238.3,41.3l7.7,-7.7L195.6,151.3c-3.1,-13.8,-15.3,-55,-15.3,-71.9c0,-9.1,0,-30.5,22.9,-30.5c38.2,0,70.3,42.8,145.1,139l19.9,-13.7C290.3,56.5,230.7,-15.2,136,-15.2Z"
       id="f1_1c"
       transform="scale(0.001,-0.001)" />
    <path
       d="M26,0l0,22.9c41.2,4.6,62.6,7.7,111.5,77.9L311.7,352.9l-143.6,220c-55.6,82.6,-76.3,92,-115.4,92c-5,0,-10.3,-0.1,-16,-0.3l0,22.9l316.2,0l0,-22.9c-27.5,0,-65.7,-3.1,-65.7,-35.2c0,-27.5,62.7,-120.6,91.7,-165c93.2,134.5,102.4,148.2,102.4,165c0,32.1,-35.2,33.7,-61.2,35.2l0,22.9l241.4,0l0,-22.9C595.8,663.1,550,617.2,537.8,597.4L411,414L606.5,114.6C664.6,26,705.8,24.4,731.8,22.9L731.8,0L424.7,0l0,22.9c47.4,1.5,61.1,7.7,61.1,39.7c0,23,-18.3,41.3,-24.4,48.9L337.6,301L216.9,113.1C207.8,99.3,186.4,67.2,186.4,50.4c3,-27.5,35.1,-27.5,61.1,-27.5L247.5,0Z"
       id="f0_26"
       transform="scale(0.001,-0.001)" />
    <path
       d="M27.5,0l0,22.9c71.8,4.6,94.7,24.5,94.7,114.6l0,378.9c0,96.2,-29,97.8,-53.4,97.8c-21.4,0,-38.2,-3.1,-44.4,-6.1l0,25.9c68.8,19.9,140.6,42.8,210.9,68.8L246,699.7L246,579c74.8,70.3,132.9,123.8,223,123.8c70.3,0,178.8,-41.3,178.8,-229.2l0,-349.8C647.8,51.9,666.1,29,741,22.9L741,0L423.2,0l0,22.9c56.5,4.6,96.2,12.2,96.2,128.4l0,319.3c0,93.2,-27.5,148.2,-117.6,148.2c-45.8,0,-93.2,-30.6,-151.2,-87.1l0,-429.3c0,-50.5,21.3,-74.9,100.8,-79.5L351.4,0Z"
       id="f0_1w"
       transform="scale(0.001,-0.001)" />
    <path
       d="M310.1,-13.7c-66.9,0,-130.9,26,-173.7,26c-1.2,0,-2.3,0,-3.5,-0.1C114.6,12.2,108.5,7.6,99.3,-4.5l-19.9,0l0,236.7l24.5,0C122.2,151.3,151.3,18.3,301,18.3c51.9,0,123.7,24.5,123.7,111.6c0,48.9,-30.5,85.5,-79.4,113l-88.6,50.4C161.9,346.8,77.9,403.3,77.9,516.4c0,85.5,65.7,186.4,213.9,186.4c67.2,0,114.6,-30.6,140.6,-30.6c13.7,0,21.4,10.7,25.9,16.8l16.8,0l6.2,-209.3l-23,0C424.7,635.6,356,667.6,288.8,667.6c-84.1,0,-116.2,-59.5,-116.2,-99.3c0,-30.5,9.2,-74.8,65.7,-108.4l165,-97.8C478.2,316.3,531.7,273.5,531.7,181.8C531.7,48.9,407.9,-13.7,310.1,-13.7Z"
       id="f0_21"
       transform="scale(0.001,-0.001)" />
    <path
       d="M400.3,27.5c77.9,0,180.3,58.1,180.3,276.5c0,189.5,-78,356,-218.5,356C265.8,660,181.8,580.6,181.8,421.7C181.8,308.6,216.9,27.5,400.3,27.5ZM378.9,-13.7c-197.1,0,-334.6,155.8,-334.6,362c0,188,125.3,354.5,330,354.5c200.1,0,343.8,-132.9,343.8,-354.5c0,-151.2,-107,-362,-339.2,-362Z"
       id="f0_1x"
       transform="scale(0.001,-0.001)" />
    <path
       d="M392.6,-19.8c-13.7,0,-16.8,6.1,-41.2,70.2C314.7,145.1,168.1,499.6,113.1,608.1c-23,45.8,-53.5,55,-84.1,56.5l0,22.9l299.5,0l0,-22.9c-36.7,-3.1,-70.3,-7.7,-70.3,-45.8c0,-18.4,9.2,-41.3,13.7,-53.5L427.8,174.2c51.9,146.6,160.4,385,160.4,440c0,35.1,-33.6,48.9,-71.8,50.4l0,22.9l212.4,0l0,-22.9c-52,-4.6,-62.7,-29,-99.4,-119.2L433.9,55C417.1,13.8,403.3,-19.8,392.6,-19.8Z"
       id="f0_24"
       transform="scale(0.001,-0.001)" />
    <path
       d="M7.6,0l0,22.9C91.7,38.2,116.1,42.8,116.1,128.3l0,382c0,90.1,-29,91.6,-53.5,91.6c-21.3,0,-38.2,-3,-51.9,-6.1l0,24.5c74.9,24.4,151.2,51.9,226.1,82.5l7.6,-3.1l0,-135.9l3.1,0c71.8,108.4,123.8,139,181.8,139c52,0,82.5,-32.1,82.5,-82.5c0,-38.2,-21.4,-67.2,-58,-67.2c-53.5,0,-68.8,53.4,-105.5,53.4c-36.6,0,-103.9,-76.4,-103.9,-125.2l0,-343.8C244.4,32.1,296.4,26,374.3,22.9L374.3,0Z"
       id="f0_20"
       transform="scale(0.001,-0.001)" />
    <path
       d="M378.9,-244.3c178.7,0,282.6,67.2,282.6,148.1c0,68.8,-74.8,71.9,-187.9,74.9c-143.6,4.6,-177.2,4.6,-249,19.9C177.2,-58,149.7,-90,149.7,-135.9c0,-47.3,55,-108.4,229.2,-108.4Zm12.2,510.1c103.9,0,111.5,113.1,111.5,146.7C502.6,455.3,478.2,660,346.8,660c-55,0,-114.6,-35.1,-114.6,-137.5c0,-120.7,39.7,-256.7,158.9,-256.7ZM313.2,-331.4c-155.8,0,-270.4,67.2,-270.4,148.2c0,68.7,71.8,131.4,149.7,184.7c-41.2,19.9,-81,38.2,-81,81c0,26,0,45.8,136,166.5C157.4,288.8,105.4,359,105.4,447.6c0,181.8,146.7,255.2,262.8,255.2c53.5,0,87.1,-12.2,148.2,-35.2c32.1,-12.2,59.6,-15.2,84,-15.2l117.7,0l0,-59.6l-126.8,0c15.2,-35.2,29,-64.2,29,-140.6c0,-165,-157.4,-224.6,-242.9,-224.6c-18.4,0,-73.4,7.7,-82.5,7.7C264.3,232.2,203.2,169.6,203.2,139c0,-35.1,73.3,-39.7,119.2,-41.2l197,-9.2C682.9,81,704.3,-30.5,704.3,-73.2c0,-172.7,-253.6,-258.2,-391.1,-258.2Z"
       id="f0_1p"
       transform="scale(0.001,-0.001)" />
    <path
       d="M30.6,0l0,22.9c100.8,4.6,126.8,18.4,126.8,136l0,479.7l-125.3,0l0,48.9l125.3,0c0,85.6,0,356,275,356c85.5,0,152.7,-41.3,152.7,-93.2C585.1,906,550,886.1,519.4,886.1c-64.1,0,-71.8,114.6,-143.6,114.6c-84,0,-91.6,-79.4,-91.6,-136l0,-177.2l187.9,0l0,-48.9l-186.4,0l0,-479.7c0,-93.2,1.5,-132.9,142.1,-136L427.8,0Z"
       id="f0_1o"
       transform="scale(0.001,-0.001)" />
    <path
       d="M24.4,0l0,22.9c61.2,1.5,107,4.6,107,107l0,386.5c0,96.2,-29,97.8,-53.5,97.8c-21.4,0,-36.6,-3.1,-48.9,-6.1L29,634c71.8,19.9,143.6,42.8,213.9,68.8l10.7,-3.1l0,-114.6c90.2,68.8,152.8,117.7,235.3,117.7c99.3,0,146.7,-64.2,163.5,-128.4c32,36.7,125.2,128.4,245.9,128.4c158.9,0,180.3,-158.9,180.3,-272l0,-314.7c0,-33.6,-1.5,-79.4,65.7,-90.1L1184,22.9L1184,0L849.4,0l0,22.9c76.4,9.2,100.9,12.2,100.9,110l0,322.4c0,77.9,-1.5,168,-111.5,168c-84.1,0,-136,-41.2,-169.6,-93.2l0,-385C669.2,29,716.5,24.4,779.2,22.9L779.2,0L436.9,0l0,22.9c68.8,4.6,103.9,9.2,103.9,108.5l0,331.5c0,100.9,-25.9,160.4,-105.4,160.4C330,623.3,259.7,540.8,259.7,533.2l0,-430.8c0,-74.9,50.4,-78,103.9,-79.5L363.6,0Z"
       id="f0_1v"
       transform="scale(0.001,-0.001)" />
    <path
       d="M398.8,33.6c50.4,0,187.9,29,187.9,294.9c0,35.1,-7.7,282.6,-194.1,282.6c-55,0,-140.5,-42.8,-149.7,-100.8l0,-375.9C242.9,99.3,314.7,33.6,398.8,33.6ZM7.6,-329.9l0,26c100.9,7.6,107,39.7,107,105.4l0,713.4c0,61.1,-4.6,87,-58.1,87c-13.7,0,-29,0,-42.7,-1.5l0,24.5c73.3,22.9,146.6,48.9,220,77.9l9.1,-3.1l0,-111.5l3.1,-3.1c32.1,42.8,102.3,117.7,220,117.7c135.9,0,252.1,-125.3,252.1,-328.5c0,-175.7,-108.5,-388,-320.9,-388c-61.1,0,-103.9,15.2,-154.3,64.1l0,-238.2c0,-97.8,24.5,-114.6,134.5,-114.6l0,-27.5Z"
       id="f0_1y"
       transform="scale(0.001,-0.001)" />
    <path
       d="M221.5,-25.9c-13.7,0,-13.7,19.9,-13.7,44.2c0,110,-19.9,357.5,-35.2,446.1C151.4,583.7,146.3,617.9,71.6,617.9c-11.5,0,-24.5,-0.8,-39.5,-2.2l0,19.9c111.5,16.8,186.4,38.2,194,38.2c1.3,0,2.6,0,3.7,0c11.9,0,13.8,-1.3,20.8,-30.6c45.8,-201.7,55,-326.9,65.7,-536.3l47.3,48.9c87.1,90.2,209.3,272,209.3,348.4c0,59.6,-64.1,42.7,-64.1,125.2c0,23,24.4,44.4,55,44.4c50.4,0,87,-39.8,87,-96.3c0,-140.6,-227.6,-412.5,-278,-466C271.9,3.1,244.4,-25.9,221.5,-25.9Z"
       id="f1_1m"
       transform="scale(0.001,-0.001)" />
    <path
       d="M-103.8,-314.6c-47.4,0,-110,19.8,-119.2,90.1c0,4.6,0,62.7,55,65.7c0.8,0.1,1.6,0.1,2.4,0.1c21.8,0,58.8,-19.8,58.8,-56.6c0,-26,-13.8,-26,-13.8,-42.8c0,-12.2,10.7,-24.4,29,-24.4C4.6,-282.5,44.3,-96.2,56.5,-35L191,605L53.5,605l10.7,48.9l140.5,0c39.7,129.9,116.1,381.9,308.6,381.9c110,0,134.5,-68.7,134.5,-99.3c0,-30.5,-27.5,-61.1,-62.7,-61.1c-48.8,0,-58,41.3,-58,58.1c0,33.6,15.3,33.6,15.3,50.4c0,12.2,-15.3,18.3,-35.2,18.3C381.9,1002.2,336.1,731.8,322.4,653.9l165,0L478.2,605l-166.5,0L201.7,116.1C158.9,-68.7,73.3,-314.6,-103.8,-314.6Z"
       id="f1_17"
       transform="scale(0.001,-0.001)" />
    <path
       d="M191,-15.2c-32.1,0,-84.1,22.8,-84.1,80.9c0,48.9,38.2,87.1,84.1,87.1c45.8,0,85.5,-39.7,85.5,-87.1C276.5,9.2,223.1,-15.2,191,-15.2Z"
       id="f0_b"
       transform="scale(0.001,-0.001)" />
    <path
       d="M244.4,0l0,29c139.1,6.1,143.7,41.3,143.7,154.3l0,763.9l-82.5,0c-168.1,0,-209.3,-29,-243,-195.5l-36.6,0l9.1,259.7l861.7,0L906,751.7l-36.7,0c-32.1,168,-74.9,195.5,-242.9,195.5l-82.5,0l0,-780.7C543.9,62.6,562.2,33.6,690.6,29l0,-29Z"
       id="f0_19"
       transform="scale(0.001,-0.001)" />
    <path
       d="M290.3,-13.7c-62.7,0,-181.8,35.1,-181.8,197l0,385c0,91.7,-48.9,94.8,-94.7,97.8l0,21.4l223,0l0,-498.1c0,-21.3,13.8,-116.1,114.6,-116.1c45.8,0,91.7,21.4,132.9,55c13.8,12.3,24.5,27.5,24.5,78l0,359c0,61.1,-6.2,93.2,-113.1,96.2l0,26l241.4,0l0,-524c0,-52.8,2.8,-87.3,84,-87.3c3.4,0,7,0.1,10.7,0.2l0,-21.4C649.3,33.6,591.3,12.2,519.4,-12.1l-3,3l0,125.2L450.7,50.4C391.1,-7.5,317.8,-13.7,290.3,-13.7Z"
       id="f0_23"
       transform="scale(0.001,-0.001)" />
    <path
       d="M24.4,0l0,22.9c94.8,4.6,120.7,13.8,120.7,132.9l0,354.5c0,90.1,-29,91.6,-53.4,91.6c-21.4,0,-41.3,-3,-61.1,-6.1l0,23c79.4,25.9,157.3,55,236.8,84l6.1,-4.6l0,-542.4C273.5,55,281.1,29,386.5,22.9L386.5,0ZM195.6,887.6c-55,0,-76.4,48.9,-76.4,78c0,29,22.9,77.9,76.4,77.9c45.8,0,79.4,-35.2,79.4,-77.9c0,-44.3,-33.6,-78,-79.4,-78Z"
       id="f0_1r"
       transform="scale(0.001,-0.001)" />
    <path
       d="M48.9,0l0,22.9c74.9,1.5,102.4,13.8,102.4,120.7l0,495l-103.9,0l0,48.9l105.4,0c7.6,226.1,119.1,356,333,356c99.3,0,192.5,-30.6,192.5,-110c0,-30.6,-24.4,-56.6,-53.4,-56.6c-81,0,-74.9,128.4,-188,128.4c-71.8,0,-123.7,-53.5,-142,-97.8C276.5,861.7,276.5,789.9,278.1,687.5l239.8,0c56.5,0,122.2,6.1,172.7,15.3l6.1,-4.6c-1.6,-48.9,-3.1,-111.5,-3.1,-149.7l0,-400.3C693.6,44.3,718.1,29,796,22.9L796,0L459.9,0l0,22.9C562.2,29,565.3,56.5,565.3,148.2l0,403.3c0,58.1,-4.6,74.9,-55,82.5c-19.9,1.6,-198.6,4.6,-230.7,4.6l0,-504.2c0,-61.1,3,-106.9,105.4,-111.5L385,0Z"
       id="f2_29"
       transform="scale(0.001,-0.001)" />
    <path
       d="M359,-19.8c-10.7,0,-18.3,15.3,-39.7,65.6L113.1,568.3c-30.6,73.4,-42.8,93.2,-81,96.3l0,22.9l275,0l0,-22.9c-35.2,-3.1,-70.3,-9.2,-70.3,-52c0,-53.4,90.1,-247.5,160.4,-443l139.1,304c-56.6,172.7,-73.4,183.3,-136,191l0,22.9l310.1,0l0,-22.9C660,656.9,621.8,652.4,621.8,608.1c0,-27.5,9.2,-44.3,32.1,-103.9l122.2,-327L913.6,516.4c16.8,38.2,26,79.4,26,97.8c0,36.6,-30.6,42.7,-67.2,50.4l0,22.9l187.9,0l0,-22.9c-32.1,-10.7,-39.7,-26,-62.7,-82.5L786.8,53.5C762.4,-4.5,756.3,-19.8,744,-19.8c-12.2,0,-15.2,10.7,-36.6,64.1L568.3,404.9L397.2,38.2c-21.4,-41.2,-29,-58,-38.2,-58Z"
       id="f0_25"
       transform="scale(0.001,-0.001)" />
    <path
       d="M551.5,33.6c169.6,0,325.4,136,325.4,472.1C876.9,854,707.4,977.8,551.5,977.8C395.7,977.8,226.1,854,226.1,505.7C226.1,169.6,381.9,33.6,551.5,33.6Zm0,-53.4C275,-19.8,51.9,178.8,51.9,504.2c0,351.4,249.1,528.6,499.6,528.6c250.6,0,499.6,-177.2,499.6,-528.6c0,-325.4,-223,-524,-499.6,-524Z"
       id="f0_14"
       transform="scale(0.001,-0.001)" />
    <path
       d="M59.6,296.4l0,96.2l375.8,0l0,-96.2Z"
       id="f0_a"
       transform="scale(0.001,-0.001)" />
    <path
       d="M363.6,77.9c22.9,0,48.9,3.1,76.4,13.8c79.4,29,79.4,53.4,81,102.3l0,314.8C521,551.5,519.4,660,374.3,660C250.6,660,168.1,548.5,168.1,363.6C168.1,223.1,227.6,77.9,363.6,77.9ZM385,-329.9l0,26c114.6,4.6,136,39.7,136,116.1l0,282.5l-7.7,0C487.4,48.9,380.4,-13.7,287.2,-13.7C151.3,-13.7,36.7,93.2,36.7,323.9c0,210.8,149.7,378.9,340.7,378.9c77.9,0,113,-19.9,172.6,-53.5l82.5,48.9l10.7,4.6l6.1,-6.1l0,-910.5c0,-73.3,27.5,-79.4,96.3,-94.7l0,-21.4Z"
       id="f0_1z"
       transform="scale(0.001,-0.001)" />
    <path
       d="M126.8,-213.8l-13.7,29c100.8,64.2,125.2,133,125.2,162c0,13.7,-10.7,21.4,-21.4,21.4c-3,0,-7.6,-1.6,-13.7,-3.1c-4.6,-1.5,-12.2,-3,-22.9,-3C140.6,-7.5,85.6,6.1,85.6,67.2c0,65.7,50.4,88.6,88.6,88.6C209.3,155.8,297.9,136,297.9,9.2c0,-106.9,-125.3,-207.7,-171.1,-223Z"
       id="f0_9"
       transform="scale(0.001,-0.001)" />
    <path
       d="M157.4,-331.4c-76.4,0,-111.6,48.9,-111.6,88.6c0,9.1,3.1,67.2,73.4,67.2c41.2,0,88.6,-27.5,108.4,-27.5c79.5,0,140.6,209.2,140.6,233.7c0,22.9,-73.3,163.4,-94.7,210.8L99.3,617.2C81,655.4,41.3,663.1,21.4,666.1l0,21.4l314.7,0l0,-22.9C301,663.1,247.5,661.5,247.5,620.3c0,-19.9,10.7,-44.3,15.3,-55L438.5,178.8L557.6,517.9c15.3,41.3,35.2,90.2,35.2,103.9c0,27.7,-22.3,42.9,-66.8,42.9c-2.1,0,-4.3,0,-6.6,-0.1l0,22.9l206.3,0l0,-22.9c-19.9,-3.1,-50.4,-6.1,-73.3,-68.8L417.1,-25.9C339.2,-230.6,271.9,-331.4,157.4,-331.4Z"
       id="f0_27"
       transform="scale(0.001,-0.001)" />
    <path
       d="M427.8,-19.8c-116.1,0,-191,50.4,-236.8,50.4c-32.1,0,-47.4,-26,-47.4,-48.8l-33.6,0L64.2,304l35.1,0c29,-71.8,107,-270.4,313.2,-270.4c122.2,0,183.3,87.1,183.3,169.6c0,87.1,-24.4,139,-249,270.4C206.3,554.6,108.5,621.8,108.5,773.1c0,174.1,139,259.7,276.5,259.7c91.7,0,174.2,-52,212.4,-52c42.7,0,50.4,35.2,53.4,52l32.1,0L716.5,707.4l-38.2,0C652.4,832.6,554.6,970.1,394.2,970.1c-76.4,0,-154.3,-47.3,-154.3,-142c0,-229.2,510.2,-259.8,510.2,-573C750.1,125.3,646.3,-19.8,427.8,-19.8Z"
       id="f0_18"
       transform="scale(0.001,-0.001)" />
    <path
       d="M682.9,392.6L505.7,812.8L330,392.6ZM22.9,0l0,29c24.5,1.6,50.4,4.6,77.9,33.6c35.2,38.2,82.5,149.8,111.6,217l317.7,750.1l30.6,0L941.1,161.9C990,50.4,1011.4,33.6,1078.6,29l0,-29L689,0l0,29c56.6,0,107,1.6,107,58.1c0,24.4,-19.9,74.8,-29.1,96.2L704.3,330L304,330L233.8,151.3C226.1,131.4,221.5,110,221.5,93.2C221.5,29,293.3,29,325.4,29l0,-29Z"
       id="f0_q"
       transform="scale(0.001,-0.001)" />
    <path
       d="M311.7,524c128.3,1.6,357.5,4.6,357.5,223.1C669.2,950.3,469,954.9,406.4,954.9c-81,0,-94.7,-10.7,-94.7,-55l0,-375.9ZM26,0l0,29c123.7,7.7,129.8,39.8,129.8,154.3l0,661.6c0,113,-22.9,126.8,-129.8,137.5l0,29l421.6,0c136,0,388.1,-32.1,388.1,-267.4C835.7,539.3,637.1,502.6,559.2,487.4L873.9,100.8C907.5,59.6,944.2,32.1,1006.8,29l0,-29l-246,0L397.2,470.6l-85.5,-3.1l0,-301C311.7,64.2,326.9,35.1,449.2,29l0,-29Z"
       id="f0_17"
       transform="scale(0.001,-0.001)" />
    <path
       d="M18.3,0l0,29c116.1,7.7,148.2,30.6,148.2,195.6l0,620.3C166.5,964,134.4,976.3,21.4,982.4l0,29l302.5,0L676.8,239.9l337.6,771.5l304.1,0l0,-29c-96.3,-7.7,-132.9,-16.8,-132.9,-137.5l0,-678.4C1185.6,48.9,1220.7,35.1,1318.5,29l0,-29L890.7,0l0,29c119.2,6.1,139,29.1,139,154.3l0,686l-3,0L638.6,0L617.2,0L236.8,834.2l-3,0l0,-609.6c0,-157.4,32,-191,143.6,-195.6l0,-29Z"
       id="f0_12"
       transform="scale(0.001,-0.001)" />
    <path
       d="M41.3,0l0,22.9L447.6,641.7l-210.8,0c-111.5,0,-117.6,-52,-128.3,-134.5l-27.5,0l4.6,180.3l530.1,0l0,-22.9L204.7,45.8l210.9,0c161.9,0,171.1,47.4,195.5,166.6l27.5,-6.1L617.2,0Z"
       id="f0_28"
       transform="scale(0.001,-0.001)" />
    <path
       d="M18.3,0l0,29c114.6,6.1,133,29.1,133,154.3l0,661.6c0,120.7,-36.7,129.8,-133,137.5l0,29l811.3,0l4.6,-218.5l-38.2,0c-22.9,136,-62.7,160.4,-232.2,160.4l-207.8,0c-38.2,0,-48.9,-6.1,-48.9,-51.9l0,-339.2l221.5,0c125.3,0,152.8,30.6,168.1,145.2l35.1,0l0,-354.5l-35.1,0C679.9,481.3,643.2,496.5,528.6,498.1l-221.5,3l0,-334.6C307.1,51.9,337.6,33.6,446.1,29l0,-29Z"
       id="f0_v"
       transform="scale(0.001,-0.001)" />
    <path
       d="M180.3,0l0,22.9C268.9,26,325.4,29,325.4,142.1l0,692.1c0,32.1,0,71.8,-51.9,71.8c-18.4,0,-18.4,0,-103.9,-33.6l0,21.4l275,139l12.2,-3.1l0,-916.6c0,-73.4,30.6,-90.2,145.1,-90.2L601.9,0Z"
       id="f0_e"
       transform="scale(0.001,-0.001)" />
    <path
       d="M262.8,-10.6L565.3,898.3l-331.5,0C134.4,898.3,106.9,854,56.5,774.6L30.6,786.8L96.3,944.2l24.4,67.2l565.3,0l0,-24.5L362.1,-10.6Z"
       id="f0_k"
       transform="scale(0.001,-0.001)" />
    <path
       d="M45.8,0l0,18.3l272,288.8C450.7,449.2,516.4,586.7,516.4,701.3c0,77.9,-38.2,218.4,-218.5,218.4C158.9,919.7,113.1,803.6,79.4,721.1l-32,7.7c45.8,230.6,189.4,304,323.9,304c139,0,276.5,-103.9,276.5,-275c0,-162,-128.4,-301,-195.6,-372.8L195.6,116.1l365.1,0c56.5,0,85.6,4.6,145.1,100.8l19.9,-7.6L641.7,0Z"
       id="f0_f"
       transform="scale(0.001,-0.001)" />
    <path
       d="M446.1,-268.8c-88.6,47.4,-189.4,154.3,-247.5,239.9C123.8,79.4,73.3,189.4,73.3,400.3c0,262.8,140.6,491.9,377.4,632.5l13.7,-24.5C351.4,918.2,204.7,799,204.7,411c0,-155.9,0,-488.8,259.7,-655.3l-18.3,-24.5Z"
       id="f0_6"
       transform="scale(0.001,-0.001)" />
    <path
       d="M58.1,-268.8l-13.8,24.5C157.4,-154.2,304,-35,304,351.4c0,155.8,0,490.4,-259.7,656.9l18.3,24.5C151.3,985.4,252.1,878.5,310.1,792.9C385,682.9,435.4,572.9,435.4,362.1C435.4,99.3,294.9,-128.2,58.1,-268.8Z"
       id="f0_7"
       transform="scale(0.001,-0.001)" />
    <path
       d="M469,406.4c0,262.8,4.6,432.4,4.6,466l-3,0l-272,-466ZM469,0l0,239.9l-427.7,0l0,184.8l398.7,660l242.9,0l0,-678.3l120.7,0l0,-166.5l-120.7,0L682.9,0Z"
       id="f3_9"
       transform="scale(0.001,-0.001)" />
    <path
       d="M97.8,0l0,223.1l229.1,0L326.9,0Z"
       id="f3_4"
       transform="scale(0.001,-0.001)" />
    <path
       d="M39.7,0c7.7,126.8,16.8,259.7,252.1,430.8C487.4,572.9,565.3,627.9,565.3,750.1c0,71.8,-45.9,154.3,-149.7,154.3C265.8,904.4,261.3,780.7,259.7,701.3l-207.8,0c0,352.9,258.2,383.4,354.5,383.4c207.8,0,372.8,-122.2,372.8,-342.2C779.2,556.1,658.5,461.4,553.1,389.6C409.4,288.8,334.6,239.9,310.1,189.4l470.6,0L780.7,0Z"
       id="f3_7"
       transform="scale(0.001,-0.001)" />
    <path
       d="M528.6,-27.4c-400.3,0,-469,229.1,-469,365l220,0c1.5,-61.1,32.1,-177.2,232.2,-177.2c108.5,0,229.2,26,229.2,142.1c0,85.6,-82.5,108.5,-198.6,136L424.7,466C247.5,507.2,76.4,546.9,76.4,788.3c0,122.3,65.7,337.7,421.7,337.7c336.1,0,426.2,-220,427.7,-354.5l-220,0c-6.1,48.9,-24.4,165,-224.5,165c-87.1,0,-191,-32.1,-191,-131.4c0,-85.5,70.3,-103.8,116.1,-114.5L673.8,624.9C823.5,588.2,961,527.1,961,330C961,0,624.9,-27.4,528.6,-27.4Z"
       id="f3_y"
       transform="scale(0.001,-0.001)" />
    <path
       d="M357.5,131.4c94.7,0,191,61.1,191,160.4l0,103.9C527.1,378.9,491.9,365.1,403.3,351.4C323.9,337.6,258.2,317.8,258.2,229.2c0,-74.9,58.1,-97.8,99.3,-97.8ZM291.8,-19.8C169.6,-19.8,44.3,47.4,44.3,215.4c0,158.9,100.8,239.9,236.8,259.7l192.5,29.1c33.6,4.6,74.9,18.3,74.9,64.1c0,90.2,-85.6,94.8,-140.6,94.8C301,663.1,282.6,597.4,276.5,550L70.3,550C94.7,799,267.4,834.2,433.9,834.2c114.6,0,323.9,-35.2,323.9,-235.3l0,-440c0,-96.3,21.4,-117.6,47.3,-126.8L805.1,0L574.4,0C562.2,38.2,559.2,50.4,554.6,96.3C505.7,45.8,436.9,-19.8,291.8,-19.8Z"
       id="f3_15"
       transform="scale(0.001,-0.001)" />
    <path
       d="M97.8,0l0,812.8l204.7,0l0,-119.2l3.1,0c27.5,53.5,87,140.6,230.7,140.6c117.6,0,171.1,-42.8,226.1,-129.9c27.5,39.7,87,129.9,216.9,129.9c158.9,0,282.6,-93.2,282.6,-272L1261.9,0L1048.1,0l0,493.5c0,120.7,-53.5,160.4,-116.2,160.4C825,653.9,786.8,583.6,786.8,487.4L786.8,0L572.9,0l0,488.9c0,68.7,0,165,-128.3,165C343.8,653.9,311.7,583.6,311.7,495l0,-495Z"
       id="f3_1g"
       transform="scale(0.001,-0.001)" />
    <path
       d="M487.4,154.3c137.5,0,175.7,149.7,175.7,246c0,128.3,-45.9,249,-181.8,249C334.6,649.3,299.4,517.9,299.4,388.1c0,-120.7,52,-233.8,188,-233.8ZM94.7,-314.6l0,1127.4l204.7,0l0,-117.7l3.1,0c39.7,64.2,99.3,139.1,242.9,139.1c178.8,0,337.7,-137.5,337.7,-418.6C883.1,192.5,782.2,-19.8,540.8,-19.8c-149.7,0,-203.2,79.4,-229.1,123.7l-3.1,0l0,-418.5Z"
       id="f3_1j"
       transform="scale(0.001,-0.001)" />
    <path
       d="M105.4,0l0,1096.9l213.9,0L319.3,0Z"
       id="f3_1f"
       transform="scale(0.001,-0.001)" />
    <path
       d="M586.7,487.4c-12.3,131.4,-96.3,171.1,-165,171.1C320.8,658.5,267.4,594.3,255.1,487.4ZM440,-19.8C210.8,-19.8,35.1,88.6,35.1,423.2c0,97.8,33.7,411,389.6,411c160.4,0,382,-76.4,382,-447.7l0,-38.2l-557.7,0c6.1,-61.1,18.4,-198.6,191,-198.6c59.6,0,120.7,30.6,137.5,88.6l220,0C741,42.8,579,-19.8,440,-19.8Z"
       id="f3_19"
       transform="scale(0.001,-0.001)" />
    <path
       d="M108.5,0l0,1096.9l229.1,0l0,-415.5l427.8,0l0,415.5l229.2,0L994.6,0L765.4,0l0,491.9l-427.8,0L337.6,0Z"
       id="f3_o"
       transform="scale(0.001,-0.001)" />
    <path
       d="M467.5,158.9c165,0,195.6,143.6,195.6,247.5c0,103.9,-30.6,247.5,-195.6,247.5c-165,0,-195.6,-143.6,-195.6,-247.5c0,-103.9,30.6,-247.5,195.6,-247.5Zm0,-178.7C249,-19.8,51.9,113.1,51.9,406.4c0,293.3,197.1,427.8,415.6,427.8C686,834.2,883.1,699.7,883.1,406.4C883.1,113.1,686,-19.8,467.5,-19.8Z"
       id="f3_1i"
       transform="scale(0.001,-0.001)" />
    <path
       d="M447.6,154.3c136,0,189.5,113.1,189.5,233.8c0,129.8,-36.7,261.2,-183.3,261.2c-136,0,-181.9,-120.7,-181.9,-249c0,-96.3,38.2,-246,175.7,-246ZM394.2,-19.8C152.8,-19.8,51.9,192.5,51.9,415.6c0,281.1,158.9,418.6,337.7,418.6c137.5,0,201.7,-74.9,235.3,-126.8l3,0l0,389.5l213.9,0L841.8,0L632.5,0l0,102.4l-3.1,0C577.5,10.7,482.8,-19.8,394.2,-19.8Z"
       id="f3_18"
       transform="scale(0.001,-0.001)" />
    <path
       d="M97.8,0l0,812.8l204.7,0l0,-140.6l3.1,0c44.3,82.5,93.2,162,223,162c13.8,0,27.5,-1.6,41.3,-3.1l0,-216.9c-18.4,3,-41.3,3,-61.1,3c-166.6,0,-197.1,-103.9,-197.1,-194L311.7,0Z"
       id="f3_1l"
       transform="scale(0.001,-0.001)" />
    <path
       d="M436.9,-19.8c-184.8,0,-385,62.6,-391.1,279.5l220,0c0,-68.7,42.8,-119.1,177.3,-119.1c110,0,135.9,53.4,135.9,84c0,136,-504.1,33.6,-504.1,337.6c0,119.2,74.8,272,328.4,272c158.9,0,348.4,-39.8,365.2,-268.9l-209.3,0C550,617.2,531.7,672.2,415.6,672.2c-116.2,0,-131.4,-44.3,-131.4,-79.4c0,-128.4,508.7,-35.2,508.7,-334.6c0,-236.8,-229.1,-278,-356,-278Z"
       id="f3_1m"
       transform="scale(0.001,-0.001)" />
    <path
       d="M97.8,-255l0,80.9c58,19.9,120.7,47.4,128.3,174.1L97.8,0l0,223.1l229.1,0l0,-192.5C326.9,-155.7,229.2,-224.5,99.3,-255Z"
       id="f3_2"
       transform="scale(0.001,-0.001)" />
    <path
       d="M427.8,-19.8C122.2,-19.8,51.9,212.4,51.9,383.5c0,262.8,114.6,450.7,389.6,450.7c128.4,0,339.2,-58.1,359.1,-311.7l-217,0c-8.8,51.6,-40.5,131.7,-132,131.7c-3.3,0,-6.6,-0.1,-10.1,-0.3C307.1,653.9,271.9,519.4,271.9,418.6c0,-88.6,3.1,-264.3,165,-264.3c108.5,0,145.2,103.9,145.2,142.1l216.9,0C791.4,212.4,725.7,-19.8,427.8,-19.8Z"
       id="f3_17"
       transform="scale(0.001,-0.001)" />
    <path
       d="M343.8,-7.5c-184.9,0,-218.5,68.6,-218.5,174l0,493.5l-110,0l0,152.8l110,0l0,220l213.9,0l0,-220l132.9,0l0,-152.8l-132.9,0l0,-441.5c0,-47.4,1.5,-65.7,88.6,-65.7c13.7,0,29,1.5,44.3,3l0,-160.3c-33.6,-1.5,-67.2,-3,-100.8,-3Z"
       id="f3_1n"
       transform="scale(0.001,-0.001)" />
    <path
       d="M105.4,0l0,812.8l213.9,0L319.3,0Zm0,909l0,198.6l213.9,0l0,-198.6Z"
       id="f3_1d"
       transform="scale(0.001,-0.001)" />
    <path
       d="M334.6,0L24.4,1096.9l244.5,0C409.4,496.5,423.2,420.1,443.1,294.9l3,0c19.9,114.5,36.7,226.1,152.8,802l242.9,0c128.3,-601.9,139,-660,163.5,-802l3,0c18.4,103.9,36.7,198.6,178.8,802l232.2,0L1110.7,0l-220,0C777.6,537.8,757.8,644.7,721.1,855.6l-3,0C684.4,644.7,666.1,565.3,548.5,0Z"
       id="f3_12"
       transform="scale(0.001,-0.001)" />
    <path
       d="M99.3,0l0,812.8l204.7,0l0,-119.2l3.1,0c29,48.9,90.1,140.6,244.4,140.6c158.9,0,282.7,-93.2,282.7,-272L834.2,0L620.3,0l0,493.5c0,59.6,-3.1,160.4,-139,160.4C386.5,653.9,313.2,589.7,313.2,466l0,-466Z"
       id="f3_1h"
       transform="scale(0.001,-0.001)" />
    <path
       d="M244.4,0L15.3,812.8l227.6,0L369.7,229.2l3.1,0L487.4,812.8l215.4,0L825,229.2l3.1,0L954.9,812.8l220,0L941.1,0l-220,0L594.3,592.8l-3,0L464.4,0Z"
       id="f3_1q"
       transform="scale(0.001,-0.001)" />
    <path
       d="M291.8,-10.6c-132.9,0,-161.9,74.8,-161.9,171l0,527.1l-108.5,0l0,111.5l108.5,0l0,223.1l134.4,0l0,-223.1l128.3,0l0,-111.5l-128.3,0l0,-519.4c0,-62.7,53.5,-62.7,81,-62.7l47.3,0L392.6,0c-48.8,-4.5,-87,-10.6,-100.8,-10.6Z"
       id="f4_1l"
       transform="scale(0.001,-0.001)" />
    <path
       d="M424.7,94.7c192.5,0,232.2,198.6,232.2,305.6c0,106.9,-39.7,305.5,-232.2,305.5C232.2,705.8,192.5,507.2,192.5,400.3c0,-107,39.7,-305.6,232.2,-305.6Zm0,-116C169.6,-21.3,53.5,194,53.5,400.3c0,206.2,116.1,421.6,371.2,421.6C679.9,821.9,796,606.5,796,400.3C796,194,679.9,-21.3,424.7,-21.3Z"
       id="f4_1g"
       transform="scale(0.001,-0.001)" />
    <path
       d="M304,0L12.2,799l155.9,0L375.8,148.2l3.1,0L605,799l146.7,0L447.6,0Z"
       id="f4_1n"
       transform="scale(0.001,-0.001)" />
    <path
       d="M339.2,88.6c125.2,0,247.5,81,247.5,187.9l0,131.4c-21.4,-16.8,-55,-29,-221.6,-50.4C299.4,348.3,194,328.5,194,227.6c0,-87,44.3,-139,145.2,-139ZM305.6,-22.8C158.9,-22.8,55,70.3,55,207.8c0,67.2,19.9,223,242.9,250.5l221.5,27.5c32.1,3.1,70.3,15.3,70.3,94.8c0,84,-61.1,129.8,-187.9,129.8C249,710.4,227.6,617.2,218.5,556.1l-123.8,0c6.1,191,132.9,265.8,330,265.8c64.2,0,296.4,-18.3,296.4,-223l0,-459.9c0,-33.6,16.8,-47.3,44.3,-47.3c12.2,0,29,3,44.3,6.1L809.7,0C786.8,-6,766.9,-15.2,736.4,-15.2c-119.2,0,-137.5,61,-142.1,122.1C542.4,50.4,461.4,-22.8,305.6,-22.8Z"
       id="f4_14"
       transform="scale(0.001,-0.001)" />
    <path
       d="M403.3,-22.8C178.8,-22.8,45.8,146.7,45.8,377.4c0,247.5,119.2,444.5,383.5,444.5c209.3,0,288.8,-152.7,299.5,-291.8l-129.9,0c-16.8,107,-76.4,171.2,-189.5,171.2c-166.5,0,-220,-158.9,-220,-301C189.4,262.8,223.1,93.2,407.9,93.2c90.2,0,168.1,67.2,191,189.4l129.9,0C715,155.8,637.1,-22.8,403.3,-22.8Z"
       id="f4_16"
       transform="scale(0.001,-0.001)" />
    <path
       d="M363.6,-22.8C246,-22.8,103.9,33.6,103.9,224.6l0,574.4l134.4,0l0,-530.1C238.3,137.5,305.6,93.2,392.6,93.2c169.6,0,220,149.7,220,265.8l0,440l134.5,0l0,-799L620.3,0l0,116.1l-3.1,3.1C560.7,26,491.9,-22.8,363.6,-22.8Z"
       id="f4_1m"
       transform="scale(0.001,-0.001)" />
    <path
       d="M99.3,0l0,799l126.8,0l0,-113l3.1,0c29,42.8,97.7,135.9,241.4,135.9c143.6,0,189.4,-87,212.3,-129.8c67.2,74.8,120.7,129.8,244.5,129.8c85.5,0,247.5,-44.3,247.5,-268.8L1174.9,0L1040.4,0l0,516.4c0,110,-33.6,184.9,-148.2,184.9c-113,0,-187.9,-107,-187.9,-213.9L704.3,0L569.9,0l0,553.1c0,67.2,-26,148.2,-125.3,148.2c-76.4,0,-210.8,-48.9,-210.8,-265.9L233.8,0Z"
       id="f4_1e"
       transform="scale(0.001,-0.001)" />
    <path
       d="M435.4,93.2c146.7,0,215.4,132.9,215.4,308.6c0,102.4,-10.7,299.5,-218.4,299.5C238.3,701.3,216.9,491.9,216.9,362.1c0,-212.4,133,-268.9,218.5,-268.9ZM88.6,-316.2L88.6,799l126.8,0l0,-113l3.1,0c32.1,45.8,93.2,135.9,238.3,135.9c212.4,0,333.1,-174.1,333.1,-398.7c0,-191,-79.5,-446,-351.4,-446C331.5,-22.8,261.3,27.5,226.1,84l-3,0l0,-400.2Z"
       id="f4_1h"
       transform="scale(0.001,-0.001)" />
    <path
       d="M649.3,462.9c-7.6,123.8,-59.6,238.4,-223,238.4C302.5,701.3,204.7,586.7,204.7,462.9ZM418.6,-22.8C194,-22.8,61.1,146.7,61.1,377.4c0,247.5,119.2,444.5,383.5,444.5C675.3,821.9,788.3,638.6,788.3,356l-583.6,0C204.7,189.4,282.6,93.2,436.9,93.2c126.9,0,201.7,97.8,206.3,157.4l134.4,0C773.1,212.4,736.4,99.3,635.6,32.1C598.9,7.6,546.9,-22.8,418.6,-22.8Z"
       id="f4_18"
       transform="scale(0.001,-0.001)" />
    <path
       d="M117.6,0l0,799l126.8,0l0,-132.9l3.1,0C301,759.3,371.3,821.9,472.1,821.9c16.8,0,24.4,-1.5,35.1,-4.5l0,-139.1l-50.4,0C331.5,678.3,252.1,580.6,252.1,464.4L252.1,0Z"
       id="f4_1j"
       transform="scale(0.001,-0.001)" />
    <path
       d="M67.2,354.4l0,137.5l374.3,0l0,-137.5Z"
       id="f4_9"
       transform="scale(0.001,-0.001)" />
    <path
       d="M99.3,0l0,799l126.8,0l0,-113l3.1,0c29,42.8,103.9,135.9,241.4,135.9c123.7,0,279.5,-50.4,279.5,-278L750.1,0L615.7,0l0,491.9C615.7,631,576,701.3,444.6,701.3c-76.4,0,-210.8,-48.9,-210.8,-265.9L233.8,0Z"
       id="f4_1f"
       transform="scale(0.001,-0.001)" />
    <path
       d="M102.4,0l0,1096.9l134.4,0L236.8,0Z"
       id="f4_1d"
       transform="scale(0.001,-0.001)" />
    <path
       d="M99.3,0l0,1096.9l134.5,0l0,-404.8l3,0C275,742.5,342.2,821.9,470.6,821.9c123.7,0,279.5,-50.4,279.5,-278L750.1,0L615.7,0l0,522.5c0,108.5,-30.6,178.8,-158.9,178.8c-110,0,-223,-64.2,-223,-265.9L233.8,0Z"
       id="f4_1b"
       transform="scale(0.001,-0.001)" />
    <path
       d="M102.4,0l0,799l134.4,0l0,-799Zm0,944.2l0,152.7l134.4,0l0,-152.7Z"
       id="f4_1c"
       transform="scale(0.001,-0.001)" />
    <path
       d="M392.6,-22.8C76.4,-22.8,53.5,160.4,48.9,256.7l129.9,0C183.3,194,201.7,93.2,391.1,93.2c96.3,0,183.3,38.2,183.3,126.8c0,64.2,-44.3,85.6,-158.8,114.6L259.7,372.8c-111.5,27.5,-184.8,84,-184.8,194c0,175.7,145.1,255.1,302.5,255.1c285.7,0,305.5,-210.8,305.5,-250.5l-129.8,0c-1.6,50.4,-19.9,134.4,-189.5,134.4c-41.2,0,-158.9,-13.7,-158.9,-113c0,-65.7,41.3,-81,145.2,-107L484.3,452.2C650.8,411,708.9,349.9,708.9,241.4c0,-165,-136,-264.2,-316.3,-264.2Z"
       id="f4_1k"
       transform="scale(0.001,-0.001)" />
    <path
       d="M131.4,0l0,687.5l-110,0l0,111.5l110,0l0,137.5c0,120.7,76.4,175.7,207.8,175.7c19.8,0,39.7,-1.5,61.1,-3l0,-120.7c-16.8,1.5,-38.2,3,-55,3c-58.1,0,-79.5,-29,-79.5,-93.2l0,-99.3l134.5,0l0,-111.5l-134.5,0L265.8,0Z"
       id="f4_19"
       transform="scale(0.001,-0.001)" />
    <path
       d="M16.8,0L297.9,411L30.6,799l172.6,0L388.1,517.9L572.9,799l165,0L467.5,411L748.6,0L577.5,0L378.9,301L186.4,0Z"
       id="f4_1p"
       transform="scale(0.001,-0.001)" />
    <path
       d="M407.9,93.2c85.6,0,218.5,56.5,218.5,268.9C626.4,491.9,605,701.3,411,701.3C203.2,701.3,192.5,504.2,192.5,401.8C192.5,226.1,261.3,93.2,407.9,93.2Zm-3,-116c-272,0,-351.4,255,-351.4,446c0,224.6,120.7,398.7,333,398.7c145.2,0,206.3,-90.1,238.4,-135.9l3,0l0,410.9l134.5,0L762.4,0L635.6,0l0,110l-3.1,0C574.4,1.5,482.8,-22.8,404.9,-22.8Z"
       id="f4_17"
       transform="scale(0.001,-0.001)" />
    <path
       d="M415.6,93.2c85.5,0,218.4,56.5,218.4,268.9c0,129.8,-21.4,339.2,-215.4,339.2C210.8,701.3,200.1,504.2,200.1,401.8C200.1,226.1,268.9,93.2,415.6,93.2ZM391.1,-336c-94.7,0,-279.6,26,-305.5,238.3l134.4,0c24.4,-126.8,148.2,-126.8,180.3,-126.8c232.2,0,227.6,186.4,227.6,281l0,33.6C589.7,26,519.4,-22.8,412.5,-22.8c-271.9,0,-351.4,255,-351.4,446c0,224.6,120.7,398.7,333.1,398.7c145.1,0,207.7,-91.6,241.4,-140.5l0,117.6l126.8,0l0,-733.3C762.4,-48.8,760.8,-336,391.1,-336Z"
       id="f4_1a"
       transform="scale(0.001,-0.001)" />
    <path
       d="M435.4,93.2c146.7,0,215.4,132.9,215.4,308.6c0,102.4,-10.7,299.5,-218.4,299.5C238.3,701.3,216.9,491.9,216.9,362.1c0,-212.4,133,-268.9,218.5,-268.9Zm3.1,-116C302.5,-22.8,246,55,218.5,99.3l-3.1,0L215.4,0L88.6,0l0,1096.9l134.5,0l0,-398.7l3,0c58.1,84,137.5,122.2,230.7,123.7c212.4,0,333.1,-174.1,333.1,-398.7c0,-191,-79.5,-446,-351.4,-446Z"
       id="f4_15"
       transform="scale(0.001,-0.001)" />
    <path
       d="M252.1,0L21.4,799l146.7,0L320.8,171.1l3.1,0L478.2,799l149.7,0L783.8,171.1l3,0L948.8,799l134.4,0L851,0L711.9,0L550,618.8l-3.1,0L391.1,0Z"
       id="f4_1o"
       transform="scale(0.001,-0.001)" />
    <path
       d="M366.7,-316.2C207.8,-77.8,103.9,113.1,103.9,398.8c0,268.8,93.2,485.8,258.2,721.1l93.2,0C325.4,875.4,247.5,728.8,247.5,362.1c0,-252.1,87.1,-438.4,209.3,-678.3Z"
       id="f4_4"
       transform="scale(0.001,-0.001)" />
    <path
       d="M53.5,-316.2C183.3,-71.7,261.3,74.9,261.3,441.5c0,252.1,-87.1,438.5,-209.4,678.4l90.2,0C301,881.5,404.9,690.6,404.9,404.9C404.9,136,311.7,-80.9,146.7,-316.2Z"
       id="f4_5"
       transform="scale(0.001,-0.001)" />
    <path
       d="M407.9,93.2c85.6,0,218.5,56.5,218.5,268.9C626.4,491.9,605,701.3,411,701.3C203.2,701.3,192.5,504.2,192.5,401.8C192.5,226.1,261.3,93.2,407.9,93.2ZM620.3,-316.2l0,400.2l-3.1,0C582.1,27.5,511.8,-22.8,404.9,-22.8c-272,0,-351.4,255,-351.4,446c0,224.6,120.7,398.7,333,398.7c145.2,0,206.3,-90.1,238.4,-135.9l3,0l0,113l126.8,0l0,-1115.2Z"
       id="f4_1i"
       transform="scale(0.001,-0.001)" />
    <path
       d="M24.4,0l0,38.2c87.1,9.2,134.5,13.7,134.5,108.5l0,739.4C158.9,986.9,96.3,990,24.4,994.6l0,38.2l866.3,0l0,-307.1l-36.7,0C820.4,884.6,779.2,980.8,516.4,980.8c-82.5,0,-110,-6.1,-110,-71.8l0,-354.4c2.6,-0.1,5.2,-0.1,7.7,-0.1c182.4,0,204.9,107.2,226,227.7l38.2,0l0,-516.4l-38.2,0C623.3,391.1,598.9,502.6,406.4,502.6l0,-355.9c0,-100.9,61.1,-103.9,168,-108.5L574.4,0Z"
       id="f5_d"
       transform="scale(0.001,-0.001)" />
    <path
       d="M24.4,0l0,36.7c55,13.7,81,18.3,81,91.6l0,449.2c0,68.8,-22.9,79.4,-81,90.1l0,36.7l293.4,0l0,-580.5c0,-47.4,12.2,-81,71.8,-87.1L389.6,0ZM210.8,818.9c-70.2,0,-119.1,51.9,-119.1,117.6c0,64.2,50.4,119.2,119.1,119.2c65.7,0,117.7,-53.5,117.7,-119.2c0,-67.2,-52,-117.6,-117.7,-117.6Z"
       id="f5_j"
       transform="scale(0.001,-0.001)" />
    <path
       d="M363.6,-264.2c61.1,0,253.6,0,253.6,108.5c0,55,-42.8,77.9,-122.2,77.9l-264.3,0c-39.7,-32.1,-53.5,-52,-53.5,-85.6c0,-97.8,160.4,-100.8,186.4,-100.8Zm3.1,542.3c96.2,0,100.8,110,100.8,197c0,68.8,0,200.2,-100.8,200.2C273.5,675.3,265.8,571.4,265.8,475.1c0,-105.4,10.7,-197,100.9,-197ZM345.3,-313.1c-189.5,0,-302.5,53.5,-302.5,139c0,61.1,55,107,140.5,114.6l0,3.1C114.6,-32,64.2,-9.1,64.2,68.8c0,96.2,113,155.8,178.7,174.1l0,3.1C129.9,287.2,56.5,369.7,56.5,479.7c0,122.2,103.9,242.9,313.2,242.9c55,0,107,-9.1,168.1,-33.6l198.6,0l0,-80.9l-123.8,0c15.3,-15.3,61.2,-59.6,61.2,-151.3C673.8,363.6,623.3,284.2,513.3,249C469,235.3,469,235.3,320.8,235.3c-29,0,-85.5,-30.6,-85.5,-76.4c0,-52,39.7,-53.5,152.8,-55l99.3,-1.5C562.2,100.8,737.9,85.6,737.9,-82.4c0,-189.4,-201.6,-230.7,-392.6,-230.7Z"
       id="f5_h"
       transform="scale(0.001,-0.001)" />
    <path
       d="M307.1,-19.8C151.3,-19.8,99.3,84,99.3,192.5l0,385c0,61.1,-12.2,79.4,-74.9,90.1l0,36.7l287.3,0l0,-517.9c0,-42.8,1.5,-108.5,85.5,-108.5c58.1,0,96.3,38.2,125.3,67.2l0,432.4c0,84,-42.8,85.6,-94.7,90.1l0,36.7l307.1,0l0,-550c0,-59.6,16.8,-87.1,85.5,-88.6l0,-35.1C632.5,10.7,611.1,9.2,524,-18.2l0,97.6C479.7,41.3,409.4,-19.8,307.1,-19.8Z"
       id="f5_m"
       transform="scale(0.001,-0.001)" />
    <path
       d="M44.3,0l0,36.7c48.9,9.1,82.5,15.2,82.5,91.6l0,449.2c0,76.4,-36.7,84,-82.5,90.1l0,36.7l288.8,0l0,-120.7l3,0c32.1,47.4,100.8,139,200.2,139c103.8,0,126.8,-82.5,126.8,-119.1c0,-39.7,-21.4,-102.4,-97.8,-102.4c-88.6,0,-87.1,90.2,-136,90.2c-22.9,0,-90.1,-33.7,-90.1,-145.2l0,-288.7C339.2,64.2,357.5,41.3,450.7,36.7L450.7,0Z"
       id="f5_l"
       transform="scale(0.001,-0.001)" />
    <path
       d="M455.3,430.8c-1.5,47.4,-1.5,126.8,-13.8,172.7c-9.1,33.6,-29,71.8,-82.5,71.8c-56.5,0,-108.4,-33.6,-108.4,-244.5ZM348.3,-19.8C194,-19.8,38.2,91.7,38.2,352.9c0,226.1,139,369.7,314.7,369.7c265.9,0,285.7,-265.8,290.3,-348.3l-385,0C262.8,244.4,296.4,88.6,441.5,88.6c90.2,0,143.6,67.2,172.7,102.4l36.6,-21.4C557.6,27.5,470.6,-19.8,348.3,-19.8Z"
       id="f5_g"
       transform="scale(0.001,-0.001)" />
    <path
       d="M102.4,0l0,36.7c2.2,-0.1,4.4,-0.1,6.5,-0.1c170.8,0,175.3,59.3,175.3,152.8l0,588.2c0,38.2,0,105.5,-59.6,105.5c-21.4,0,-73.3,-18.4,-125.3,-38.2l0,39.7l385,166.5l26,0l0,-870.8C510.3,77.9,524,36.7,675.3,36.7L675.3,0Z"
       id="f5_4"
       transform="scale(0.001,-0.001)" />
    <path
       d="M224.6,0L530.1,823.5l-316.2,0c-39.7,0,-116.1,0,-149.7,-129.9l-38.2,0l67.2,339.2l635.6,0L369.7,0Z"
       id="f5_a"
       transform="scale(0.001,-0.001)" />
    <path
       d="M191,-18.2C117.6,-18.2,62.6,36.7,62.6,108.5c0,68.7,55,129.8,128.4,129.8c71.8,0,129.8,-59.5,129.8,-129.8C320.8,35.1,262.8,-18.2,191,-18.2Z"
       id="f5_2"
       transform="scale(0.001,-0.001)" />
    <path
       d="M26,0l0,35.1c247.5,264.3,432.3,466,432.3,646.3c0,42.8,-24.4,195.5,-181.8,195.5c-35.1,0,-129.8,-9.1,-186.4,-137.5l-42.7,0c30.5,87.1,120.7,311.7,336.1,311.7c94.7,0,282.6,-53.5,282.6,-285.7c0,-44.3,0,-160.4,-174.2,-326.9L244.4,203.2l230.7,0c162,0,175.7,15.3,218.5,119.2l36.7,0L661.5,0Z"
       id="f5_5"
       transform="scale(0.001,-0.001)" />
    <path
       d="M426.3,142.1c111.5,0,154.3,96.2,154.3,171.1c0,76.4,-39.8,169.6,-158.9,169.6c-77.9,0,-152.8,-50.4,-152.8,-168.1c0,-103.9,59.6,-172.6,157.4,-172.6Zm0,502.6c84,0,132.9,56.6,132.9,134.5c0,82.5,-56.6,134.4,-125.3,134.4c-96.3,0,-146.7,-55,-146.7,-134.4c0,-64.2,47.4,-134.5,139.1,-134.5ZM424.7,-27.4C145.1,-27.4,48.9,152.8,48.9,301c0,55,0,198.6,165,275C128.3,618.8,82.5,687.5,82.5,788.3c0,184.9,148.2,296.4,337.6,296.4c224.6,0,343.8,-132.9,343.8,-282.6c0,-93.2,-38.2,-172.7,-125.3,-218.5c103.9,-51.9,162,-120.7,162,-261.2C800.6,184.9,711.9,-27.4,424.7,-27.4Z"
       id="f3_d"
       transform="scale(0.001,-0.001)" />
    <path
       d="M424.7,142.1c122.2,0,155.9,106.9,155.9,386.5c0,279.6,-33.7,385,-155.9,385c-122.2,0,-155.8,-105.4,-155.8,-385C268.9,249,302.5,142.1,424.7,142.1Zm0,-169.5c-255.1,0,-375.8,175.6,-375.8,556c0,380.4,120.7,556.1,375.8,556.1c255.2,0,375.9,-175.7,375.9,-556.1c0,-380.4,-120.7,-556,-375.9,-556Z"
       id="f3_5"
       transform="scale(0.001,-0.001)" />
    <path
       d="M111.5,0l0,1096.9l212.4,0L637.1,169.6l3,0l311.7,927.3l210.8,0L1162.6,0L1019,0l0,647.8c0,32.1,3.1,171.1,3.1,273.5l-3.1,0L710.4,0L563.8,0L255.1,919.7l-3,0c0,-100.8,3,-239.8,3,-271.9L255.1,0Z"
       id="f6_j"
       transform="scale(0.001,-0.001)" />
    <path
       d="M675.3,450.7l-162,482.8l-3,0L334.6,450.7ZM21.4,0L433.9,1096.9l168,0L999.2,0l-162,0L728.8,319.3l-440,0L174.2,0Z"
       id="f6_8"
       transform="scale(0.001,-0.001)" />
    <path
       d="M392.6,0l0,965.6l-371.2,0l0,131.3l890.7,0l0,-131.3l-371.3,0L540.8,0Z"
       id="f6_q"
       transform="scale(0.001,-0.001)" />
    <path
       d="M626.4,597.4c108.5,0,223,27.5,223,189.4c0,169.6,-123.7,183.3,-197,183.3l-369.8,0l0,-372.7ZM134.4,0l0,1096.9l507.3,0c180.2,0,360.5,-62.6,360.5,-294.8c0,-162,-82.5,-221.5,-152.8,-262.8c62.7,-26,125.3,-53.5,131.4,-206.2L990,134.4c1.5,-61.1,9.2,-84,55,-110L1045,0L863.2,0c-21.4,67.2,-26,233.8,-26,275c0,90.1,-18.3,195.6,-195.5,195.6l-359.1,0L282.6,0Z"
       id="f6_o"
       transform="scale(0.001,-0.001)" />
    <path
       d="M139,0l0,1096.9l148.2,0L287.2,0Z"
       id="f6_g"
       transform="scale(0.001,-0.001)" />
    <path
       d="M29,0L421.7,562.2L53.5,1096.9l186.4,0l278,-420.1L796,1096.9l177.2,0L605,562.2L990,0L806.7,0L511.8,450.7L207.8,0Z"
       id="f6_u"
       transform="scale(0.001,-0.001)" />
    <path
       d="M517.9,-27.4C314.7,-27.4,235.3,32.1,186.4,76.4C93.2,160.4,74.9,252.1,74.9,354.4l139,0C213.9,155.8,375.8,97.8,516.4,97.8c106.9,0,287.2,27.5,287.2,184.8c0,114.6,-53.5,151.3,-233.7,194.1L345.3,528.6C273.5,545.4,111.5,595.8,111.5,786.8c0,171.1,111.6,339.2,377.4,339.2c383.5,0,421.7,-229.2,427.8,-349.9l-139.1,0C770,945.7,629.4,999.2,505.7,999.2c-93.2,0,-250.6,-26,-250.6,-192.5c0,-93.2,65.7,-123.8,129.9,-139.1L698.2,595.8c142.1,-33.6,249,-119.1,249,-293.3C947.2,42.8,705.8,-27.4,517.9,-27.4Z"
       id="f6_p"
       transform="scale(0.001,-0.001)" />
    <path
       d="M594.3,102.4c238.3,0,382,187.9,382,446.1c0,258.2,-143.7,446.1,-382,446.1C356,994.6,212.4,806.7,212.4,548.5C212.4,290.3,356,102.4,594.3,102.4Zm0,-129.8C184.9,-27.4,59.6,311.7,59.6,548.5c0,236.8,125.3,577.5,534.7,577.5C1003.8,1126,1129,785.3,1129,548.5C1129,311.7,1003.8,-27.4,594.3,-27.4Z"
       id="f6_l"
       transform="scale(0.001,-0.001)" />
    <path
       d="M116.1,0l0,1096.9l148.2,0l0,-965.5l556.1,0L820.4,0Z"
       id="f6_i"
       transform="scale(0.001,-0.001)" />
    <path
       d="M116.1,0l0,1096.9l175.7,0L840.3,210.8l3,0l0,886.1l143.6,0L986.9,0L820.4,0L262.8,886.1l-3.1,0L259.7,0Z"
       id="f6_k"
       transform="scale(0.001,-0.001)" />
  </defs>
  <!-- Any embedded fonts defined here -->
  <style
     type="text/css"
     id="style2822"><![CDATA[

@font-face {
	font-family: AdvP6EC0_d;
	src: url("fonts/AdvP6EC0_d.woff") format("woff");
}

@font-face {
	font-family: AdvP41153C_p;
	src: url("fonts/AdvP41153C_p.woff") format("woff");
}

@font-face {
	font-family: AdvP4B2E3F_16;
	src: url("fonts/AdvP4B2E3F_16.woff") format("woff");
}

@font-face {
	font-family: AdvP41153C_k;
	src: url("fonts/AdvP41153C_k.woff") format("woff");
}

@font-face {
	font-family: AdvP4A213B_q;
	src: url("fonts/AdvP4A213B_q.woff") format("woff");
}

@font-face {
	font-family: Helvetica_r;
	src: url("fonts/Helvetica_r.woff") format("woff");
}

@font-face {
	font-family: AdvP6EC5_4;
	src: url("fonts/AdvP6EC5_4.woff") format("woff");
}

]]></style>
  <text
     xml:space="preserve"
     style="font-style:normal;font-weight:normal;font-size:32px;line-height:1.25;font-family:sans-serif;letter-spacing:0px;word-spacing:0px;fill:#000000;fill-opacity:1;stroke:none;"
     x="142.18182"
     y="79.834709"
     id="text3482"><tspan
       sodipodi:role="line"
       id="tspan3480"
       x="142.18182"
       y="116.32792"></tspan></text>
  <text
     xml:space="preserve"
     style="font-style:normal;font-weight:normal;font-size:40px;line-height:1.25;font-family:sans-serif;letter-spacing:0px;word-spacing:0px;fill:#000000;fill-opacity:1;stroke:none"
     x="177.91736"
     y="101.12397"
     id="text3486"><tspan
       sodipodi:role="line"
       id="tspan3484"
       x="177.91736"
       y="137.61719"></tspan></text>
  <text
     xml:space="preserve"
     style="font-style:normal;font-weight:normal;font-size:32px;line-height:1.25;font-family:sans-serif;letter-spacing:0px;word-spacing:0px;fill:#000000;fill-opacity:1;stroke:none"
     x="180.95868"
     y="92"
     id="text3490"><tspan
       sodipodi:role="line"
       id="tspan3488"
       x="180.95868"
       y="121.19457"></tspan></text>
  <text
     xml:space="preserve"
     style="font-style:normal;font-weight:normal;font-size:26.66666667px;line-height:1.25;font-family:sans-serif;letter-spacing:0px;word-spacing:0px;fill:#000000;fill-opacity:1;stroke:none;"
     x="62"
     y="85"
     id="text3498"><tspan
       sodipodi:role="line"
       id="tspan3496"
       x="62"
       y="114.19457" /></text>
  <text
     xml:space="preserve"
     style="font-style:normal;font-weight:normal;font-size:70.4127121px;line-height:1.25;font-family:sans-serif;letter-spacing:0px;word-spacing:0px;fill:#000000;fill-opacity:1;stroke:none;stroke-width:2.20039725"
     x="19.683939"
     y="133.4982"
     id="text3502"><tspan
       sodipodi:role="line"
       id="tspan3500"
       x="19.683939"
       y="133.4982"
       style="font-size:58.67725754px;stroke-width:2.20039725">1</tspan></text>
  <text
     xml:space="preserve"
     style="font-style:normal;font-weight:normal;font-size:58.67725754px;line-height:1.25;font-family:sans-serif;letter-spacing:0px;word-spacing:0px;fill:#000000;fill-opacity:1;stroke:none;stroke-width:2.20039725"
     x="17.483543"
     y="243.51805"
     id="text3506"><tspan
       sodipodi:role="line"
       id="tspan3504"
       x="17.483543"
       y="243.51805"
       style="stroke-width:2.20039725">2</tspan></text>
  <text
     xml:space="preserve"
     style="font-style:normal;font-weight:normal;font-size:58.67725754px;line-height:1.25;font-family:sans-serif;letter-spacing:0px;word-spacing:0px;fill:#000000;fill-opacity:1;stroke:none;stroke-width:2.20039725"
     x="74.693871"
     y="377.74228"
     id="text3510"><tspan
       sodipodi:role="line"
       id="tspan3508"
       x="74.693871"
       y="377.74228"
       style="stroke-width:2.20039725">3</tspan></text>
  <text
     xml:space="preserve"
     style="font-style:normal;font-weight:normal;font-size:58.67725754px;line-height:1.25;font-family:sans-serif;letter-spacing:0px;word-spacing:0px;fill:#000000;fill-opacity:1;stroke:none;stroke-width:2.20039725"
     x="659.99951"
     y="382.14307"
     id="text3514"><tspan
       sodipodi:role="line"
       id="tspan3512"
       x="659.99951"
       y="382.14307"
       style="stroke-width:2.20039725">4</tspan></text>
  <text
     xml:space="preserve"
     style="font-style:normal;font-weight:normal;font-size:58.67725754px;line-height:1.25;font-family:sans-serif;letter-spacing:0px;word-spacing:0px;fill:#000000;fill-opacity:1;stroke:none;stroke-width:2.20039725"
     x="195.71571"
     y="533.97046"
     id="text3518"><tspan
       sodipodi:role="line"
       id="tspan3516"
       x="195.71571"
       y="533.97046"
       style="stroke-width:2.20039725">5</tspan></text>
  <text
     xml:space="preserve"
     style="font-style:normal;font-weight:normal;font-size:58.67725754px;line-height:1.25;font-family:sans-serif;letter-spacing:0px;word-spacing:0px;fill:#000000;fill-opacity:1;stroke:none;stroke-width:2.20039725"
     x="161.1185"
     y="640.41101"
     id="text3522"><tspan
       sodipodi:role="line"
       id="tspan3520"
       x="161.1185"
       y="640.41101"
       style="stroke-width:2.20039725">6</tspan></text>
  <text
     xml:space="preserve"
     style="font-style:normal;font-weight:normal;font-size:58.67725754px;line-height:1.25;font-family:sans-serif;letter-spacing:0px;word-spacing:0px;fill:#000000;fill-opacity:1;stroke:none;stroke-width:2.20039725"
     x="218.32286"
     y="756.26624"
     id="text3526"><tspan
       sodipodi:role="line"
       id="tspan3524"
       x="218.32286"
       y="756.26624"
       style="stroke-width:2.20039725">7</tspan></text>
  <text
     xml:space="preserve"
     style="font-style:normal;font-weight:normal;font-size:58.67725754px;line-height:1.25;font-family:sans-serif;letter-spacing:0px;word-spacing:0px;fill:#000000;fill-opacity:1;stroke:none;stroke-width:2.20039725"
     x="573.07471"
     y="614.84924"
     id="text3530"><tspan
       sodipodi:role="line"
       id="tspan3528"
       x="573.07471"
       y="614.84924"
       style="stroke-width:2.20039725">13</tspan></text>
  <text
     xml:space="preserve"
     style="font-style:normal;font-weight:normal;font-size:58.67725754px;line-height:1.25;font-family:sans-serif;letter-spacing:0px;word-spacing:0px;fill:#000000;fill-opacity:1;stroke:none;stroke-width:2.20039725"
     x="237.14502"
     y="1073.9998"
     id="text3534"><tspan
       sodipodi:role="line"
       id="tspan3532"
       x="237.14502"
       y="1073.9998"
       style="stroke-width:2.20039725">9</tspan></text>
  <text
     xml:space="preserve"
     style="font-style:normal;font-weight:normal;font-size:58.67725754px;line-height:1.25;font-family:sans-serif;letter-spacing:0px;word-spacing:0px;fill:#000000;fill-opacity:1;stroke:none;stroke-width:2.20039725"
     x="437.80356"
     y="1074.89"
     id="text3538"><tspan
       sodipodi:role="line"
       id="tspan3536"
       x="437.80356"
       y="1074.89"
       style="stroke-width:2.20039725">10</tspan></text>
  <text
     xml:space="preserve"
     style="font-style:normal;font-weight:normal;font-size:58.67725754px;line-height:1.25;font-family:sans-serif;letter-spacing:0px;word-spacing:0px;fill:#000000;fill-opacity:1;stroke:none;stroke-width:2.20039725"
     x="598.98041"
     y="924.16248"
     id="text3542"><tspan
       sodipodi:role="line"
       id="tspan3540"
       x="598.98041"
       y="924.16248"
       style="stroke-width:2.20039725">11</tspan></text>
  <path
     style="fill:none;stroke:#000000;stroke-width:1px;stroke-linecap:butt;stroke-linejoin:miter;stroke-opacity:1"
     d="m 209,357 h 86 l 4,551"
     id="path3546"
     inkscape:connector-curvature="0" />
  <path
     style="fill:none;stroke:#000000;stroke-width:1px;stroke-linecap:butt;stroke-linejoin:miter;stroke-opacity:1"
     d="m 233,339 1,-35 h -27 54"
     id="path3548"
     inkscape:connector-curvature="0" />
  <path
     style="fill:none;stroke:#000000;stroke-width:1px;stroke-linecap:butt;stroke-linejoin:miter;stroke-opacity:1"
     d="m 235,357 v 48 h -22 l 42,1"
     id="path3550"
     inkscape:connector-curvature="0" />
  <path
     style="fill:none;stroke:#000000;stroke-width:1px;stroke-linecap:butt;stroke-linejoin:miter;stroke-opacity:1"
     d="m 384,896 -85,12 85,20"
     id="path3552"
     inkscape:connector-curvature="0" />
  <path
     d="M 264.64246,621.88998 H 203.9115"
     class="g6_8"
     id="path2077-4"
     inkscape:connector-curvature="0"
     style="display:block;fill:none;stroke:#050606;stroke-width:3.04907823;stroke-linecap:butt;stroke-linejoin:miter;stroke-miterlimit:4" />
  <path
     d="m 298.0885,621.88998 -37.62679,-9.02163 c 2.64047,2.2004 4.18075,5.50099 4.18075,9.02163 0,3.52063 -1.54028,6.82123 -4.18075,9.24167 z"
     class="g2_8"
     id="path2079-2"
     inkscape:connector-curvature="0"
     style="display:block;fill:#050606;stroke-width:2.20039725" />
  <text
     xml:space="preserve"
     style="font-style:normal;font-weight:normal;font-size:58.67725754px;line-height:1.25;font-family:sans-serif;letter-spacing:0px;word-spacing:0px;display:block;fill:#000000;fill-opacity:1;stroke:none;stroke-width:2.20039725"
     x="555.49042"
     y="758.53748"
     id="text3522-1"><tspan
       sodipodi:role="line"
       id="tspan3520-2"
       x="555.49042"
       y="758.53748"
       style="stroke-width:2.20039725">12</tspan></text>
  <path
     d="M 208.80393,879.03002 H 148.07297"
     class="g6_8"
     id="path2077-4-1"
     inkscape:connector-curvature="0"
     style="display:block;fill:none;stroke:#050606;stroke-width:3.04907823;stroke-linecap:butt;stroke-linejoin:miter;stroke-miterlimit:4" />
  <path
     d="m 242.24997,879.03002 -37.62679,-9.02163 c 2.64047,2.2004 4.18075,5.50099 4.18075,9.02163 0,3.52063 -1.54028,6.82123 -4.18075,9.24167 z"
     class="g2_8"
     id="path2079-2-9"
     inkscape:connector-curvature="0"
     style="display:block;fill:#050606;stroke-width:2.20039725" />
  <text
     xml:space="preserve"
     style="font-style:normal;font-weight:normal;font-size:58.67725754px;line-height:1.25;font-family:sans-serif;letter-spacing:0px;word-spacing:0px;display:block;fill:#000000;fill-opacity:1;stroke:none;stroke-width:2.20039725"
     x="97.313721"
     y="899.05652"
     id="text3530-1"><tspan
       sodipodi:role="line"
       id="tspan3528-4"
       x="97.313721"
       y="899.05652"
       style="stroke-width:2.20039725">8</tspan></text>
</svg>
