<?xml version="1.0" encoding="UTF-8" standalone="no"?>
<!-- Created with Inkscape (http://www.inkscape.org/) -->

<svg
   xmlns:dc="http://purl.org/dc/elements/1.1/"
   xmlns:cc="http://creativecommons.org/ns#"
   xmlns:rdf="http://www.w3.org/1999/02/22-rdf-syntax-ns#"
   xmlns:svg="http://www.w3.org/2000/svg"
   xmlns="http://www.w3.org/2000/svg"
   xmlns:sodipodi="http://sodipodi.sourceforge.net/DTD/sodipodi-0.dtd"
   xmlns:inkscape="http://www.inkscape.org/namespaces/inkscape"
   width="210mm"
   height="297mm"
   viewBox="0 0 744.09448819 1052.3622047"
   id="svg3439"
   version="1.1"
   inkscape:version="0.92.1 r15371"
   sodipodi:docname="vu.svg">
  <defs
     id="defs3441" />
  <sodipodi:namedview
     id="base"
     pagecolor="#ffffff"
     bordercolor="#666666"
     borderopacity="1.0"
     inkscape:pageopacity="0.0"
     inkscape:pageshadow="2"
     inkscape:zoom="1.4"
     inkscape:cx="442.124"
     inkscape:cy="479.90195"
     inkscape:document-units="px"
     inkscape:current-layer="layer1"
     showgrid="false"
     inkscape:window-width="1280"
     inkscape:window-height="949"
     inkscape:window-x="-9"
     inkscape:window-y="-9"
     inkscape:window-maximized="1" />
  <metadata
     id="metadata3444">
    <rdf:RDF>
      <cc:Work
         rdf:about="">
        <dc:format>image/svg+xml</dc:format>
        <dc:type
           rdf:resource="http://purl.org/dc/dcmitype/StillImage" />
        <dc:title></dc:title>
      </cc:Work>
    </rdf:RDF>
  </metadata>
  <g
     inkscape:label="Layer 1"
     inkscape:groupmode="layer"
     id="layer1">
    <path
       style="fill:#000000"
       d="M 175.51953 386.29688 C 173.01114 386.28787 170.57899 386.48783 168.35156 386.91016 C 165.82269 387.38964 161.50999 388.51829 161.23633 388.77148 C 161.09839 388.8991 160.80123 389.00486 160.57617 389.00586 C 159.84571 389.00986 154.34241 391.81177 151.99023 393.37695 C 148.12405 395.94956 144.80579 399.04581 142.24805 402.4668 C 141.65096 403.26541 141.0795 403.98084 140.97852 404.05664 C 140.87755 404.13244 140.1573 405.2608 139.37695 406.56445 C 137.51435 409.67612 135.5753 414.24091 134.92188 417.05273 C 134.79533 417.59723 134.56446 418.54892 134.4082 419.16602 C 133.17925 424.01925 133.07658 432.86637 134.19336 437.84375 C 135.95719 445.70489 139.39494 452.56233 144.06055 457.53125 C 144.20737 457.68762 144.68866 458.22366 145.13086 458.7207 C 146.31438 460.051 151.58978 464.50781 151.98047 464.50781 C 152.07507 464.50781 152.66621 464.86235 153.29492 465.29492 C 155.94489 467.11814 160.93107 469.18915 164.93359 470.13086 C 169.73961 471.26162 171.23091 471.43642 175.95898 471.42188 C 181.55575 471.40458 185.94493 470.7039 190.26562 469.13672 C 191.27997 468.7688 192.17757 468.4668 192.25977 468.4668 C 192.46076 468.4668 192.82548 468.82736 197.25977 473.38867 C 208.58254 485.03578 220.56193 497.34074 224.17969 501.04102 C 226.4349 503.34767 229.05228 506.03321 229.99609 507.00781 C 230.9399 507.98239 233.67254 510.78811 236.06836 513.24414 C 238.46418 515.70017 244.63986 522.04572 249.79102 527.34375 C 254.94218 532.6418 261.01445 538.876 263.28516 541.19922 C 274.94758 553.13132 278.58681 556.87709 279.75586 558.19531 C 279.70128 557.80224 279.65405 557.40667 279.55078 557.02539 C 279.54578 556.22143 279.55642 555.41888 279.57812 554.61523 C 279.57538 554.58246 279.56994 554.55017 279.56641 554.51758 L 277.48047 552.35938 C 273.7978 548.55111 268.09756 542.70033 264.81445 539.35742 C 258.80708 533.24065 252.39552 526.63831 250.32422 524.43555 C 249.7098 523.78214 246.45894 520.4538 243.09961 517.03906 C 239.74026 513.62431 235.39921 509.16897 233.45312 507.13867 C 231.50705 505.10837 227.17212 500.64879 223.81836 497.22852 C 220.46459 493.80824 217.08547 490.34891 216.31055 489.54102 L 214.90234 488.07227 L 224.89258 478.07227 C 230.38754 472.57196 235.17503 467.90687 235.53125 467.70508 C 236.16597 467.34552 236.31233 467.47325 242.89258 474.17188 C 246.58536 477.93108 250.98639 482.43337 252.67188 484.17578 C 254.35734 485.9182 258.76614 490.43949 262.46875 494.22461 C 266.17135 498.00973 270.62672 502.58477 272.36914 504.39062 C 274.11155 506.19653 279.81401 512.06972 285.04102 517.44141 C 290.26802 522.81309 296.80149 529.52872 299.56055 532.36523 C 304.40528 537.34594 304.61118 537.52095 305.58984 537.49805 C 306.50957 537.47645 306.81204 537.25659 308.86328 535.11328 C 310.10631 533.81445 313.39349 530.43494 316.16797 527.60352 C 322.78004 520.85576 339.5395 503.64643 344.05273 498.9707 C 346.00859 496.94444 350.34075 492.4891 353.67969 489.07031 C 357.01864 485.65151 361.41809 481.13276 363.45703 479.02734 C 365.49597 476.92192 369.01867 473.30649 371.2832 470.99414 L 375.40039 466.79102 L 385.99023 477.42773 C 391.81526 483.27862 396.57822 488.14092 396.57422 488.23242 C 396.56262 488.50632 394.8103 490.35394 385.91992 499.46289 C 381.25653 504.24095 376.90732 508.69981 376.25391 509.37109 C 375.60051 510.04237 371.08494 514.68139 366.2207 519.67969 C 361.35646 524.67799 355.23862 530.9595 352.625 533.64062 C 346.65409 539.76586 344.19299 542.29916 342.87305 543.67383 L 341.83398 544.75586 L 342.44922 545.41211 L 343.06641 546.06836 L 342.36719 546.33398 C 341.77181 546.56034 341.66992 546.7556 341.66992 547.66016 L 341.66992 548.7207 L 365.89062 548.78906 L 390.11328 548.85547 L 390.11328 559.94336 L 390.11328 571.03125 L 366.35352 571.16406 L 342.59375 571.29688 L 342.58789 572.64844 C 342.58489 573.39247 342.42649 574.18727 342.23828 574.41406 C 341.86253 574.86681 342.15879 575.71419 342.82812 576.10352 C 343.16073 576.297 357.05321 589.90235 378.23047 610.77344 C 383.02361 615.4973 389.20212 621.57117 391.96094 624.27148 C 402.00184 634.09942 402.91797 635.02594 402.91797 635.36719 C 402.91797 635.55814 397.76905 640.86305 391.47656 647.1543 L 380.03516 658.5918 L 376.10938 654.60352 C 373.95026 652.41003 372.12002 650.5126 372.04102 650.38672 C 371.96202 650.26082 367.50381 645.66116 362.13477 640.16406 C 342.75661 620.3237 344.78356 622.21067 343.91016 623.17578 C 343.64549 623.46823 343.23526 623.64697 343 623.57227 C 342.70031 623.47717 339.3446 626.67505 331.78516 634.25977 C 325.85176 640.21305 320.83457 645.08398 320.63672 645.08398 C 320.43891 645.08398 320.07051 644.97982 319.81836 644.85156 C 318.12334 643.98928 315.56426 643.32796 310.48438 642.44141 C 308.21033 642.04499 300.4692 642.04968 298.03125 642.44922 C 294.74207 642.988 290.69544 644.00858 288.73633 644.79492 C 282.95888 647.11375 278.71557 649.89375 274.25781 654.27734 C 268.81533 659.6293 264.9214 666.43288 263.2793 673.46484 C 261.31877 681.86054 261.29294 687.37078 263.17383 695.50977 C 264.99761 703.40167 269.44392 710.85275 275.69727 716.49805 C 278.49738 719.02585 284.46533 722.96484 285.49414 722.96484 C 285.75284 722.96484 285.96484 723.05634 285.96484 723.16602 C 285.96484 723.27562 286.70773 723.64122 287.61523 723.97852 C 288.52274 724.31572 289.50257 724.68734 289.79297 724.80664 C 291.25805 725.40834 292.08665 725.6298 296.39258 726.5625 C 299.11457 727.1521 308.94706 727.24438 311.57227 726.70508 C 317.54485 725.47808 319.14008 724.96323 323.58398 722.82812 C 331.58015 718.98632 338.39942 712.18026 342.47461 703.97266 C 343.59554 701.71506 344.98319 698.04613 345.40039 696.23633 C 345.52592 695.69183 345.74814 694.74015 345.89258 694.12305 C 346.33056 692.25138 346.94427 686.7849 346.94727 684.74023 C 346.95127 681.3488 346.2898 676.47758 345.3457 672.9375 C 345.19081 672.35669 344.99646 671.60022 344.91406 671.25781 C 344.78401 670.71769 346.18847 669.21204 355.52148 659.87695 C 364.67406 650.72233 366.25378 649.03231 366.10156 648.55273 C 366.00316 648.24268 366.03277 647.98828 366.16797 647.98828 C 366.30319 647.98828 369.72417 651.40555 373.76953 655.58008 C 377.81489 659.75462 383.39318 665.48499 386.16602 668.31641 C 388.93886 671.14783 393.33612 675.65813 395.93945 678.33789 C 398.5428 681.01762 402.7715 685.35254 405.33594 687.97266 C 407.90038 690.59275 411.48907 694.28232 413.31055 696.16992 L 416.62305 699.60156 L 417.47852 698.75195 L 418.33594 697.90039 L 414.77539 694.26367 C 407.40624 686.73305 405.55859 684.78073 405.55859 684.53711 C 405.55859 684.39925 410.83843 679.00798 417.29297 672.55469 L 429.0293 660.82031 L 429.63477 661.33203 C 430.36661 661.94887 439.66791 671.05332 440.61523 672.08008 C 440.98365 672.47938 441.40656 672.80469 441.55469 672.80469 C 441.93546 672.80469 443.04684 671.72001 443.04688 671.34766 C 443.04688 671.17696 438.32627 666.4159 432.55859 660.76758 C 426.79093 655.11925 418.03077 646.50875 413.08984 641.63477 C 408.14893 636.76079 402.04352 630.7614 399.52344 628.30273 C 393.61335 622.53668 388.52935 617.54645 380.3457 609.47852 C 370.13212 599.40938 356.05515 585.57452 350.08398 579.73633 C 347.10912 576.82771 344.58565 574.30346 344.47656 574.12695 C 344.32106 573.87535 357.74366 573.80564 406.57227 573.80664 C 440.83327 573.80738 469.06072 573.73275 469.30078 573.64062 C 469.62914 573.51464 469.718 573.20355 469.6582 572.38477 L 469.57812 571.29688 L 443.17773 571.16406 L 416.77734 571.0332 L 416.77734 559.94336 L 416.77734 548.85547 L 442.7168 548.78906 L 468.6543 548.7207 L 468.6543 547.53516 L 468.6543 546.34766 L 406.34961 546.34766 C 372.08212 546.34766 344.04492 546.24727 344.04492 546.125 C 344.04492 545.88334 349.7925 539.88061 359.75195 529.7168 C 363.23776 526.1595 367.81256 521.46877 369.91797 519.29297 C 372.02339 517.11716 376.42667 512.60175 379.70508 509.25977 C 385.91254 502.93192 390.91162 497.79006 396.19727 492.29297 C 398.37352 490.02967 399.48511 489.06055 399.90234 489.06055 C 400.97828 489.06055 401.33384 488.77613 401.33984 487.91016 C 401.34484 487.21862 401.79443 486.61645 404.04492 484.29688 C 405.53009 482.7661 410.36816 477.78919 414.79688 473.23828 C 419.2255 468.68736 422.88654 464.80976 422.93164 464.62109 C 423.02114 464.2467 423.60824 464.09968 426.01758 463.8457 C 427.61767 463.67703 429.27325 463.31122 430.24219 462.91211 C 430.53259 462.7925 431.24537 462.53834 431.82617 462.34766 C 432.40698 462.15697 433.5769 461.61489 434.42578 461.14258 C 435.27462 460.67025 436.04565 460.28325 436.14062 460.28125 C 436.51758 460.27525 439.58256 457.8061 441.29102 456.13281 C 445.21167 452.29289 447.72552 447.58276 449.14844 441.4082 C 449.63361 439.30339 449.64711 431.08797 449.16797 429.26367 C 448.97728 428.53766 448.69704 427.46752 448.54688 426.88672 C 448.39668 426.30591 448.16816 425.62518 448.03711 425.37305 C 447.90606 425.12092 447.79883 424.79764 447.79883 424.6543 C 447.79883 424.35256 446.34393 421.35325 445.37109 419.64844 C 444.30824 417.78587 442.05398 415.14552 439.94336 413.29102 C 438.86919 412.34721 437.85037 411.52685 437.67969 411.46875 C 437.50901 411.41065 437.31088 411.28395 437.23828 411.18555 C 436.964 410.81372 432.6733 408.53906 432.24609 408.53906 C 432.00039 408.53906 431.68677 408.44026 431.54883 408.32031 C 431.41089 408.20035 430.76275 407.94902 430.10938 407.76172 C 429.45596 407.57444 428.62472 407.3238 428.26172 407.20312 C 427.89872 407.08256 426.32015 406.85305 424.75391 406.69336 C 417.86215 405.99073 410.97441 407.80238 405.68359 411.71094 C 402.39439 414.14082 398.81445 418.35504 397.05078 421.87109 C 396.11178 423.74315 395.20707 426.51702 394.42383 429.92383 C 393.96441 431.92219 394.03239 439.03145 394.53516 441.45508 L 394.92969 443.34961 L 392.11328 446.20703 C 390.56435 447.77817 386.16378 452.29433 382.33398 456.24414 C 375.37565 463.4205 375.36965 463.42726 374.16211 463.50586 L 372.95312 463.58398 L 372.86914 464.76367 C 372.76763 466.18919 373.55246 465.30615 360.55859 478.625 C 355.17912 484.139 348.81758 490.66799 346.42188 493.13281 C 338.09783 501.69657 331.76163 508.19744 330.44922 509.52148 C 329.72322 510.25392 325.32808 514.76949 320.68164 519.55664 C 316.0352 524.34378 310.74698 529.78061 308.92969 531.63867 L 305.625 535.01758 L 299.68945 528.99805 C 296.42469 525.68728 289.95113 519.06178 285.30469 514.27539 C 280.65825 509.489 275.84749 504.54179 274.61328 503.2832 C 273.37907 502.02461 271.12778 499.70522 269.61133 498.12891 C 268.0949 496.55259 264.06549 492.41256 260.65625 488.92773 C 257.24703 485.4429 252.90043 480.98755 250.99805 479.02734 C 249.09568 477.06712 243.15552 470.98076 237.79688 465.50195 C 232.43815 460.02314 227.97782 455.42078 227.88672 455.27344 C 227.31085 454.34167 216.38386 443.65203 216.11328 443.75586 C 215.86119 443.85256 215.87174 443.66286 216.16016 442.97266 C 218.0327 438.49108 218.90956 427.30811 217.82422 421.73828 C 217.37135 419.4143 216.22075 414.76657 216.02734 414.47852 C 215.92984 414.33331 215.69612 413.73901 215.50781 413.1582 C 215.11365 411.94252 213.43374 408.43182 212.41406 406.69141 C 209.78475 402.20361 204.96624 397.02325 200.57422 393.96289 C 198.3735 392.42943 194.15426 390.15577 191.84766 389.25977 C 186.92912 387.34915 181.038 386.31628 175.51953 386.29688 z M 175.94141 388.91992 C 178.14186 388.90832 180.26161 389.00382 181.81641 389.22656 C 189.19666 390.28371 196.6826 393.51521 201.74805 397.82812 C 204.53777 400.20342 207.74041 403.88672 209.75195 407.03125 C 210.86361 408.76906 213.09961 413.3399 213.09961 413.875 C 213.09961 414.07663 213.19841 414.35424 213.31836 414.49219 C 213.43832 414.63013 213.68966 415.27823 213.87695 415.93164 C 214.06423 416.58504 214.30762 417.4163 214.41797 417.7793 C 216.08945 423.27807 216.24831 432.46841 214.77734 438.63477 C 213.87168 442.4313 211.88059 447.44435 210.4082 449.63867 C 210.00092 450.24563 209.66797 450.82742 209.66797 450.93164 C 209.66797 451.03586 208.85038 452.20181 207.85156 453.52344 C 204.97108 457.33491 200.96367 460.97241 197.12891 463.25391 C 195.65071 464.13336 190.97878 466.35547 190.60742 466.35547 C 190.40422 466.35547 190.12427 466.45427 189.98633 466.57422 C 189.84839 466.69417 189.20223 466.94552 188.54883 467.13281 C 187.89542 467.3201 187.06223 467.56491 186.69922 467.67773 C 185.51239 468.0466 183.18033 468.45884 180.75977 468.72852 C 175.88539 469.27159 169.51599 468.83916 165.18359 467.67188 C 164.02198 467.3589 162.80346 467.04089 162.47461 466.96289 C 162.14576 466.88489 161.81142 466.71576 161.73242 466.58789 C 161.65342 466.46003 161.38412 466.35547 161.13477 466.35547 C 159.92694 466.35547 153.18423 462.58268 150.40039 460.34961 C 148.6359 458.93421 145.13663 455.29594 143.99023 453.68359 C 143.31917 452.73978 142.67491 451.92731 142.55859 451.87891 C 142.4423 451.83051 142.34766 451.68497 142.34766 451.55469 C 142.34766 451.42441 141.93641 450.67471 141.43359 449.88867 C 140.24457 448.02994 139.05858 445.42199 138.05664 442.46289 C 136.50115 437.86891 136.17306 435.5306 136.16406 428.99805 C 136.15706 423.87601 136.30408 422.14623 137.03516 418.80273 C 137.30345 417.57577 138.21212 414.66932 138.63281 413.6875 C 139.46228 411.75163 140.54555 409.40091 140.76367 409.06641 C 140.9057 408.84861 141.25238 408.24743 141.5332 407.73047 C 142.56214 405.83631 145.36874 402.27985 147.48242 400.19141 C 151.45263 396.2686 156.03699 393.31629 160.82812 391.59766 C 161.62674 391.31119 162.51819 390.97965 162.80859 390.86133 C 163.09899 390.74301 163.87003 390.50558 164.52344 390.33398 C 165.17684 390.16239 166.06831 389.92151 166.50391 389.79688 C 168.38157 389.25968 172.27399 388.9393 175.94141 388.91992 z M 422.39844 409.15039 C 424.22872 409.20139 426.07823 409.35208 427.07422 409.58008 C 427.80022 409.74628 428.74995 409.95086 429.18555 410.03516 C 429.62116 410.11946 430.09699 410.27304 430.24219 410.375 C 430.38739 410.47695 431.10016 410.78016 431.82617 411.04883 C 437.84946 413.27775 443.57169 419.52676 445.66797 426.16602 C 447.27836 431.26638 447.59839 435.34708 446.77148 440.21875 C 446.32909 442.82515 445.15507 446.59702 444.59766 447.20117 C 444.47038 447.33911 444.36523 447.66636 444.36523 447.92773 C 444.36523 448.18909 444.24676 448.40234 444.10156 448.40234 C 443.95636 448.40234 443.83789 448.52793 443.83789 448.67969 C 443.83789 448.83144 443.2558 449.81127 442.54297 450.85742 C 440.2467 454.22749 436.31705 457.62633 432.89062 459.20703 C 430.4889 460.31504 429.97105 460.48197 426.67773 461.21875 C 424.7441 461.65137 418.74708 461.69139 417.04102 461.2832 C 415.15391 460.83164 413.8845 460.49116 413.3457 460.29102 C 405.88326 457.51905 400.42241 451.89422 398.08398 444.57422 C 396.73654 440.356 396.71289 440.21258 396.71289 435.59961 C 396.71289 430.88317 396.9079 429.53153 398.10156 425.96289 C 401.06226 417.11139 408.09673 411.18021 417.83984 409.32227 C 418.75622 409.14752 420.56816 409.09943 422.39844 409.15039 z M 395.12891 446.49414 L 395.31836 448.43945 C 395.81767 453.58747 396.54966 462.03027 396.56836 462.85742 L 396.58203 463.45117 L 387.72266 463.45117 C 379.13528 463.45117 378.8746 463.43547 379.20898 462.95898 C 379.39872 462.68864 383.05837 458.8732 387.3418 454.48047 L 395.12891 446.49414 z M 216.69922 447.62891 C 216.91655 447.42488 233.95703 464.79897 233.95703 465.22461 C 233.95703 465.49402 232.1862 465.5575 225.31055 465.5332 C 220.55521 465.5164 216.45527 465.4473 216.20117 465.38086 C 215.66073 465.23963 215.66559 465.33256 215.98828 460.01367 C 216.12466 457.76553 216.30497 454.09436 216.38867 451.85352 C 216.47237 449.61268 216.61152 447.71131 216.69922 447.62891 z M 213.66602 449.1582 C 213.69762 449.1612 213.72057 449.19908 213.75977 449.23828 C 213.92636 449.40486 213.43814 462.6284 213.20312 464.31445 L 213.02734 465.57422 L 206.12695 465.55469 C 199.77053 465.53699 197.8392 465.37578 198.93555 464.95508 C 199.93588 464.57121 203.69373 461.53168 206 459.24023 C 208.6008 456.65615 210.63529 454.06917 212.44727 451.04297 C 213.39524 449.45973 213.57116 449.14897 213.66602 449.1582 z M 398.36328 451.57031 C 398.48248 451.57031 399.00378 452.13451 399.51953 452.82422 C 402.25417 456.48127 405.6835 459.38941 409.41211 461.20898 C 410.55912 461.76873 411.73499 462.3116 412.02539 462.41602 C 413.47883 462.93865 414.18514 463.16763 414.66602 463.27344 C 414.95642 463.33734 411.61554 463.40312 407.24219 463.41992 L 399.29102 463.45117 L 399.125 462.46094 C 399.0343 461.91643 398.84302 459.80821 398.69922 457.77539 C 398.55541 455.74257 398.37287 453.51392 398.29297 452.82422 C 398.21297 452.13451 398.24408 451.57031 398.36328 451.57031 z M 419.79102 464.27539 C 419.88272 464.27939 419.96201 464.30376 420.00586 464.34766 C 420.09356 464.43546 419.93846 464.49783 419.66016 464.48633 C 419.3526 464.47363 419.28941 464.41043 419.5 464.32617 C 419.5953 464.28807 419.6993 464.27159 419.79102 464.27539 z M 387.58984 466.0918 L 396.8125 466.0918 L 396.94727 467.21289 C 397.02047 467.82999 397.20992 469.93822 397.36914 471.89844 C 397.52833 473.85865 397.72035 476.05719 397.79688 476.7832 C 397.87338 477.50921 398.04004 479.35039 398.16602 480.875 C 398.292 482.39962 398.47765 484.27089 398.58008 485.0332 C 398.68459 485.81076 398.66365 486.41992 398.53125 486.41992 C 398.24813 486.41992 378.36523 466.56973 378.36523 466.28711 C 378.36523 466.17889 382.51669 466.0918 387.58984 466.0918 z M 402.36328 466.13477 C 404.06285 466.12877 406.39261 466.13523 408.94336 466.1543 L 418.21875 466.22266 L 416.17773 468.33594 C 415.05527 469.49822 411.3047 473.35926 407.8418 476.91602 C 404.37891 480.47279 401.39724 483.46793 401.21484 483.57227 C 400.96396 483.71579 400.83882 483.16947 400.70117 481.32812 C 400.60111 479.98958 400.41478 477.70788 400.28711 476.25586 C 399.74562 470.09722 399.47161 466.28035 399.56641 466.18555 C 399.59431 466.15765 400.66371 466.14057 402.36328 466.13477 z M 204.42578 467.93945 L 213.17383 467.93945 L 213.00391 471.04102 C 212.91081 472.74714 212.75962 476.43209 212.66602 479.22852 C 212.56407 482.27375 212.37763 484.46097 212.20312 484.68359 C 211.96408 484.98851 211.72651 484.85756 210.88281 483.95508 C 210.31721 483.35005 206.66495 479.59968 202.76562 475.62109 C 198.86631 471.64251 195.67578 468.28741 195.67578 468.16406 C 195.67578 468.04071 199.61389 467.93945 204.42578 467.93945 z M 215.74023 467.93945 L 223.52734 467.93945 C 227.81078 467.93945 231.31641 468.02885 231.31641 468.13867 C 231.31641 468.24846 227.72136 471.93082 223.32812 476.32227 C 218.93491 480.71371 215.26869 484.30664 215.17969 484.30664 C 214.96804 484.30664 215.16799 476.62491 215.48828 472.47852 C 215.62631 470.6919 215.74023 468.93907 215.74023 468.58398 L 215.74023 467.93945 z M 401.91602 548.72656 C 405.34511 548.74246 408.76041 548.83029 408.84961 548.97461 C 408.93461 549.11205 408.25699 550.15645 407.3457 551.29688 C 406.43442 552.43727 405.09515 554.16081 404.36914 555.12695 C 403.64314 556.09309 402.93022 556.88948 402.7832 556.89648 C 402.37804 556.91478 394.68739 549.12314 394.90039 548.91016 C 395.04362 548.76691 398.48692 548.7107 401.91602 548.72656 z M 413.02344 548.76367 C 413.10914 548.75967 413.19826 548.76366 413.29688 548.77344 L 414.13867 548.85547 L 414.20703 558.34375 C 414.24523 563.56187 414.18243 567.925 414.06836 568.03906 C 413.83511 568.27231 404.94157 559.51578 404.81836 558.93164 C 404.73676 558.54479 405.74005 557.1637 409.98438 551.81055 C 412.01227 549.25283 412.42377 548.78869 413.02344 548.76367 z M 392.88477 550.75391 L 393.41602 551.23438 C 395.34361 552.97879 401.07031 558.82961 401.07031 559.05469 C 401.07031 559.28151 398.90365 562.27312 398.41797 562.7168 C 398.33847 562.7894 397.36119 564.03627 396.24805 565.48828 L 396.25 565.48828 C 395.13686 566.9403 393.92949 568.48432 393.56641 568.91992 L 392.90625 569.71289 L 392.89648 560.23242 L 392.88477 550.75391 z M 281.16602 556.16992 C 281.1632 556.45181 281.15635 556.73359 281.1582 557.01562 C 281.33703 557.52017 281.30349 558.07176 281.45703 558.58008 C 281.48813 558.68307 281.53758 558.77925 281.57812 558.87891 C 281.62142 559.02462 281.66573 559.1707 281.70898 559.31641 C 281.90977 559.71108 281.89344 560.1359 281.93555 560.56055 C 281.94355 560.63725 281.97423 560.709 281.98633 560.78516 C 282.05993 561.24455 282.05123 561.30423 282.08203 561.77344 C 282.10573 561.86844 282.1327 561.96308 282.1543 562.05859 C 282.1932 562.23135 282.20269 562.37108 282.22266 562.50977 L 282.25195 562.48047 C 282.24058 561.68356 282.22408 560.88705 282.22852 560.08984 C 282.20662 559.43481 282.22143 558.78822 282.43945 558.16211 C 282.5917 557.72439 282.60549 557.72765 282.61719 557.67188 L 281.16602 556.16992 z M 279.95117 559.46289 C 279.97667 559.50379 280.00339 559.52836 279.99219 559.50586 C 279.98719 559.49586 279.96627 559.47949 279.95117 559.46289 z M 280.31055 560.24414 C 280.29786 560.28614 280.29533 560.32933 280.2793 560.37109 C 280.2457 560.44039 280.16364 560.6141 280.14258 560.64844 C 280.12428 560.67834 279.82613 561.08941 279.83398 560.97852 C 279.79598 561.06172 279.77138 561.15059 279.73047 561.23242 C 279.61267 561.46796 279.41981 561.65506 279.20898 561.80664 C 279.15128 561.72654 279.21918 561.80864 279.05859 561.95898 C 279.04859 561.96798 279.04561 561.96801 279.03711 561.97461 C 279.03911 561.97561 279.10156 561.97534 279.10156 561.97656 C 279.10156 562.15069 277.7634 563.66462 276.12891 565.3418 C 274.49442 567.01898 268.75476 572.90619 263.37305 578.42383 C 257.99134 583.94148 253.2002 588.87265 252.72656 589.38086 C 251.85862 590.31212 247.02414 595.27651 238.45703 604.0332 C 225.1421 617.64281 214.53716 628.5307 214.41992 628.71484 C 214.34732 628.82888 209.78721 633.50917 204.28711 639.11523 C 198.10622 645.41517 194.09782 649.30859 193.78906 649.30859 C 193.5103 649.30859 193.15292 649.60429 192.98242 649.97852 C 192.72048 650.55343 192.56224 650.62496 191.86719 650.47656 C 191.42125 650.38136 190.93622 650.21487 190.79102 650.10742 C 190.64582 649.99995 190.23019 649.83353 189.86719 649.73633 C 189.50419 649.63913 188.55447 649.37854 187.75586 649.1582 C 185.66711 648.58189 184.03626 648.26935 180.89258 647.8418 C 170.27719 646.39805 157.76224 649.77331 149.6582 656.26562 C 141.99361 662.40589 137.36668 669.46144 134.74023 679.00977 C 133.0261 685.24146 132.90343 693.45134 134.42773 699.93164 C 134.57288 700.54874 134.7969 701.49847 134.92578 702.04297 C 135.3326 703.76167 136.46654 706.94166 137.17578 708.35156 C 137.5516 709.09866 137.85932 709.77635 137.85938 709.85938 C 137.85936 709.94208 138.41857 710.93591 139.10156 712.06641 C 142.21289 717.21621 146.06028 721.40555 151.06445 725.09375 C 153.4196 726.82955 157.94679 729.23435 160.29883 729.99805 C 160.95224 730.21025 161.72522 730.47986 162.01562 730.59766 C 163.45529 731.18146 166.32475 731.8371 170.06836 732.4375 C 172.14915 732.7714 179.33138 732.78236 181.38867 732.45508 C 186.95117 731.57038 190.42129 730.59207 194.03906 728.88867 C 195.09946 728.38937 196.02852 727.98047 196.10352 727.98047 C 196.17862 727.98047 196.75945 727.62505 197.39258 727.18945 C 198.02571 726.75385 198.61854 726.39648 198.71094 726.39648 C 199.24205 726.39648 204.32924 722.25024 206.44922 720.08984 C 211.81556 714.62114 215.81951 707.13893 217.30664 699.79883 C 217.46111 699.03653 217.70356 697.8479 217.8457 697.1582 C 218.28136 695.044 218.43919 688.94294 218.13281 686.00586 C 217.80481 682.86141 217.56033 681.38485 216.93164 678.74414 C 216.68963 677.72773 216.47041 676.77006 216.44531 676.61523 C 216.40321 676.35587 223.209 669.27459 239.375 652.75391 C 242.86315 649.18925 246.96114 644.97612 248.48242 643.39258 C 250.00371 641.80907 253.99242 637.71109 257.3457 634.28516 C 260.69895 630.85925 265.21256 626.22025 267.37695 623.97656 C 269.54132 621.73287 274.06052 617.10079 277.41992 613.68164 C 280.77932 610.26247 285.17641 605.74736 287.18945 603.64844 C 289.20249 601.54953 293.58839 597.03396 296.9375 593.61523 C 300.28658 590.1965 303.55331 586.83561 304.19727 586.14648 C 304.8412 585.45736 305.48236 584.89311 305.62109 584.89258 C 305.75983 584.892 307.0067 586.07194 308.39258 587.51367 C 311.12695 590.3582 314.10631 593.41912 327.67383 607.33203 C 332.55891 612.34147 338.05323 617.98544 339.88477 619.87305 L 343.21484 623.30469 L 344.03125 622.52539 C 344.47961 622.09671 344.81399 621.66405 344.77539 621.56445 C 344.69699 621.36206 331.62026 607.86799 323.81836 599.93945 C 318.10654 594.13492 312.05356 587.89052 308.8457 584.49023 C 306.88669 582.41372 306.59167 582.1989 305.63867 582.1543 C 304.62182 582.1067 304.49196 582.2082 301.41602 585.39062 C 299.67001 587.19709 295.26751 591.71445 291.63281 595.42969 C 287.99808 599.14493 283.30385 603.95575 281.20312 606.12109 C 279.1024 608.28642 274.35585 613.15739 270.6543 616.94531 C 266.95275 620.73322 262.36996 625.43626 260.4707 627.39648 C 258.57145 629.35669 254.35083 633.69357 251.0918 637.0332 C 247.83274 640.37282 244.07182 644.23387 242.73438 645.61328 L 240.30273 648.12109 L 229.8125 637.63477 L 219.32227 627.15039 L 221.81445 624.56641 C 228.67428 617.45779 232.49058 613.52904 238.04492 607.85938 C 241.38772 604.44714 246.00915 599.6966 248.31445 597.30078 C 250.61974 594.90496 255.13401 590.2706 258.3457 587.00195 C 261.55742 583.7333 265.9511 579.21775 268.11133 576.96875 C 270.27152 574.71976 274.48992 570.38517 277.48438 567.33594 L 280.7168 564.04492 C 280.68952 563.87994 280.65284 563.71744 280.64062 563.55078 C 280.62703 563.36569 280.67436 563.17971 280.67188 562.99414 C 280.66688 562.6114 280.52759 562.25024 280.47852 561.87305 C 280.45372 561.43783 280.37101 561.02028 280.33008 560.58789 C 280.32408 560.52159 280.34269 560.45321 280.33789 560.38672 C 280.33431 560.33179 280.31972 560.29124 280.31055 560.24414 z M 284.03711 560.47461 C 283.97252 560.52567 283.91932 560.57743 283.90625 560.62109 C 283.89155 560.67039 283.9968 560.56353 284.02344 560.51953 C 284.03626 560.49831 284.02908 560.49325 284.03711 560.47461 z M 403.00586 560.86719 C 403.16326 560.86719 412.82265 570.66183 412.90625 570.90625 C 412.96225 571.06978 409.76403 571.16406 404.12695 571.16406 C 399.25062 571.16406 395.26172 571.07146 395.26172 570.95898 C 395.26172 570.76133 402.85419 560.86719 403.00586 560.86719 z M 345.25 626.63086 C 345.48523 626.39586 363.58203 644.90911 363.58203 645.38477 C 363.58203 645.66264 345.10366 645.69196 345.09766 645.41406 C 345.01556 641.73001 345.13696 626.74381 345.25 626.63086 z M 342.26172 627.39648 C 342.37134 627.39648 342.46094 631.49447 342.46094 636.50391 L 342.46094 645.61328 L 333.15625 645.61328 L 323.85156 645.61328 L 332.95703 636.50391 C 337.96489 631.49447 342.15202 627.39648 342.26172 627.39648 z M 217.29297 629.19141 C 217.77587 629.11851 219.51735 630.7731 227.83203 639.0957 L 238.03516 649.30859 L 227.93555 649.30859 C 218.87182 649.30859 217.81908 649.26449 217.67188 648.88086 C 217.58167 648.64577 217.64128 646.41907 217.80469 643.93164 C 217.96811 641.44418 218.13548 637.33008 218.17578 634.78906 L 218.24805 630.16797 L 217.52148 630.08594 C 216.6993 629.99134 216.60692 629.73143 217.21289 629.22852 C 217.23549 629.20972 217.26077 629.19631 217.29297 629.19141 z M 215.79688 630.94922 C 215.97883 630.91772 215.97649 631.13054 215.88867 631.80469 C 215.81677 632.35656 215.63135 636.13554 215.47656 640.20117 C 215.32175 644.26681 215.14975 647.88895 215.09375 648.25195 C 215.03775 648.61495 214.9826 649.00243 214.9707 649.11133 C 214.9445 649.35019 198.05273 649.37941 198.05273 649.14062 C 198.05273 649.04863 201.00567 645.93049 204.61523 642.21094 C 208.22479 638.49138 212.05574 634.5176 213.12891 633.37891 C 214.20211 632.24019 215.29245 631.19384 215.55078 631.05469 C 215.65598 630.99799 215.73622 630.95969 215.79688 630.94922 z M 404.99023 637.07617 L 414.71094 646.59961 C 420.05812 651.83828 424.96425 656.6716 425.61328 657.33984 L 426.79297 658.55469 L 416.24219 658.48633 L 405.68945 658.41602 L 405.62109 648.84766 L 405.55078 639.27734 L 404.36914 639.27734 L 403.1875 639.27734 L 403.11914 648.84766 L 403.04883 658.41602 L 393.48047 658.48633 C 388.21692 658.52443 383.91016 658.46493 383.91016 658.35352 C 383.91016 658.24212 388.65221 653.40892 394.44922 647.61328 L 404.99023 637.07617 z M 305.12305 644.62305 C 306.15434 644.63995 307.18344 644.69315 308.20703 644.7832 C 310.27614 644.96528 312.44458 645.2364 313.02539 645.38477 C 319.52407 647.04479 323.2163 648.63588 327.58984 651.66211 C 336.43837 657.7848 342.11256 666.95406 343.86133 677.95312 C 344.4198 681.46564 344.21922 690.36772 343.51953 693.13281 C 343.39091 693.64101 343.1483 694.65095 342.97852 695.37695 C 342.80874 696.10295 342.43488 697.41005 342.14844 698.28125 C 338.59143 709.10055 329.64309 718.3163 318.96484 722.1582 C 318.45663 722.341 317.80408 722.58327 317.51367 722.69727 C 316.22864 723.20167 313.02398 723.93212 310.64844 724.26172 C 308.45709 724.56602 303.1142 724.80425 301.80469 724.65625 C 295.82106 723.98025 295.93082 724.0002 292.16797 722.9668 C 283.45138 720.5728 274.77426 713.86038 270.05078 705.85938 C 269.02044 704.11397 267.2207 700.30183 267.2207 699.86523 C 267.2207 699.66453 267.11614 699.43642 266.98828 699.35742 C 266.86042 699.27842 266.69113 698.94413 266.61133 698.61523 C 266.53153 698.28643 266.34692 697.60195 266.20117 697.09375 C 265.05392 693.09345 264.32031 688.25908 264.32031 684.68555 C 264.32031 682.38223 264.87862 677.39557 265.39844 675.04883 C 266.1669 671.57947 268.41616 665.99978 270.18555 663.17383 C 273.67355 657.60298 279.24554 652.33645 284.9082 649.25781 C 290.61333 646.1561 297.90402 644.50444 305.12305 644.62305 z M 354.70312 648.00977 C 359.17951 648.02397 363.58371 648.11128 363.5332 648.25977 C 363.4871 648.39523 359.97813 651.9845 355.73633 656.23438 C 344.42096 667.57133 345.10334 666.92519 345.08984 666.32812 C 345.08384 666.04269 345.08761 661.8921 345.09961 657.10547 C 345.11611 650.6017 345.20262 648.35252 345.44141 648.20312 C 345.67781 648.05525 350.22686 647.99557 354.70312 648.00977 z M 329.83398 648.05273 C 331.21636 648.03973 333.07184 648.03914 335.06836 648.05664 L 342.33008 648.12109 L 342.39844 656.37109 C 342.44454 661.81825 342.37794 664.62109 342.20117 664.62109 C 342.05391 664.62109 341.93359 664.5098 341.93359 664.375 C 341.93359 664.13904 340.11665 660.93021 339.83008 660.66016 C 339.75308 660.58756 339.57098 660.33689 339.42578 660.10156 C 337.70831 657.31799 332.57068 652.09969 329.30664 649.82227 C 327.93184 648.86307 327.21545 648.21211 327.44141 648.12891 C 327.5423 648.09141 328.45161 648.06573 329.83398 648.05273 z M 175.87109 650.10938 C 178.05299 650.10883 180.23629 650.20088 181.27148 650.38281 C 184.47789 650.94633 186.87 651.46944 188.54883 651.97656 C 190.36394 652.52486 190.45571 652.5597 192.8457 653.63672 C 193.68458 654.01475 194.4289 654.32422 194.5 654.32422 C 194.80145 654.32422 198.8586 656.90952 200.56055 658.18555 C 204.44186 661.09554 207.28031 664.29745 210.24414 669.10938 C 211.25822 670.75581 213.09961 674.71622 213.09961 675.25 C 213.09961 675.44439 213.20009 675.71558 213.32227 675.85352 C 213.58295 676.14781 214.51732 679.22838 214.91992 681.12109 C 216.28225 687.52554 216.0771 695.29692 214.38477 701.44922 C 213.71742 703.87542 213.41177 704.67351 211.70703 708.44531 C 209.51937 713.28551 205.45152 718.3877 201.2207 721.5957 C 200.1317 722.4214 199.18002 723.16695 199.10742 723.25195 C 198.89521 723.50045 195.10561 725.68773 194.04492 726.17383 C 191.75869 727.22143 191.23162 727.43603 189.60352 727.99023 C 186.38199 729.08693 184.8143 729.44118 180.89258 729.95508 L 180.89258 729.95703 C 177.6379 730.38353 174.4888 730.42172 171.51953 730.07422 C 169.17074 729.79942 166.43179 729.32492 165.58008 729.04492 C 165.21708 728.92562 164.20714 728.62124 163.33594 728.36914 C 157.34058 726.63434 151.84865 723.29268 147.09961 718.48828 C 141.57395 712.89818 138.01602 705.89539 136.49805 697.62109 C 136.07528 695.31659 135.91753 686.40137 136.26172 684.28906 C 136.87091 680.55045 137.96967 676.31922 138.83203 674.39062 C 142.7171 665.70195 147.49648 660.16545 155.08203 655.56445 C 156.20487 654.8834 157.18085 654.32617 157.25195 654.32617 C 157.32305 654.32617 158.00912 654.04073 158.77539 653.69336 C 162.5557 651.97972 164.37155 651.46684 170.48047 650.38477 C 171.50998 650.20202 173.68919 650.10986 175.87109 650.10938 z M 205.30078 651.94922 L 214.92578 651.94922 L 214.77148 656.89844 C 214.68678 659.62097 214.48407 663.86752 214.32031 666.33594 L 214.02344 670.82422 L 213.21289 669.37305 C 211.14815 665.67303 211.01182 665.48199 207.73047 661.61719 C 205.51573 659.00863 201.1691 655.3254 198.58008 653.86328 C 196.77162 652.84196 195.67578 652.1591 195.67578 652.05469 C 195.67578 651.99649 200.00699 651.94922 205.30078 651.94922 z M 217.66211 651.94922 L 226.99609 651.94922 C 232.13051 651.94922 236.33203 652.02172 236.33203 652.11133 C 236.33203 652.20093 234.03987 654.60631 231.23828 657.45703 C 226.16593 662.61832 221.06987 667.87087 218.32812 670.75977 C 217.53575 671.59468 216.8115 672.27734 216.7207 672.27734 C 216.6299 672.27734 216.60996 671.59468 216.67578 670.75977 C 216.74158 669.92486 216.91487 665.9735 217.06055 661.98047 C 217.20622 657.98743 217.40174 654.09629 217.49414 653.33398 L 217.66211 651.94922 z M 414.20312 661.16211 C 423.21155 661.13421 424.61814 661.15911 424.81836 661.35547 C 424.88456 661.42017 420.66733 665.74524 415.44727 670.9668 C 410.22723 676.18837 405.86748 680.46094 405.75781 680.46094 C 405.64813 680.46094 405.55859 676.12406 405.55859 670.82422 L 405.55859 661.18945 L 414.20312 661.16211 z M 392.95117 661.25195 L 403.04883 661.32031 L 403.11914 671.58984 C 403.18234 680.98526 403.22666 681.88827 403.64648 682.20703 C 404.01668 682.48813 404.02842 682.55573 403.70898 682.55273 C 403.49118 682.55073 400.93723 680.09735 398.0332 677.10156 C 395.12918 674.10574 390.52525 669.37637 387.80273 666.5918 C 385.0802 663.80721 382.85352 661.45047 382.85352 661.35547 C 382.85352 661.26077 387.39722 661.21395 392.95117 661.25195 z M 215.46875 673.06836 C 215.6094 673.06836 215.65587 673.24704 215.57227 673.46484 C 215.48867 673.68264 215.37351 673.86133 215.31641 673.86133 C 215.25931 673.86133 215.21289 673.68264 215.21289 673.46484 C 215.21289 673.24704 215.32811 673.06836 215.46875 673.06836 z "
       id="path3458" />
    <text
       xml:space="preserve"
       style="font-style:normal;font-weight:normal;line-height:0%;font-family:sans-serif;letter-spacing:0px;word-spacing:0px;fill:#000000;fill-opacity:1;stroke:none;stroke-width:1px;stroke-linecap:butt;stroke-linejoin:miter;stroke-opacity:1"
       x="415.34943"
       y="444.15524"
       id="text11465-2-9"><tspan
         sodipodi:role="line"
         id="tspan11467-0-0"
         x="415.34943"
         y="444.15524"
         style="font-style:normal;font-variant:normal;font-weight:normal;font-stretch:normal;font-size:29.72688293px;line-height:1.25;font-family:FreeSerif;-inkscape-font-specification:FreeSerif">2</tspan></text>
    <text
       xml:space="preserve"
       style="font-style:normal;font-weight:normal;line-height:0%;font-family:sans-serif;letter-spacing:0px;word-spacing:0px;fill:#000000;fill-opacity:1;stroke:none;stroke-width:1px;stroke-linecap:butt;stroke-linejoin:miter;stroke-opacity:1"
       x="167.60951"
       y="699.47131"
       id="text11465-2-9-9"><tspan
         sodipodi:role="line"
         id="tspan11467-0-0-1"
         x="167.60951"
         y="699.47131"
         style="font-style:normal;font-variant:normal;font-weight:normal;font-stretch:normal;font-size:29.72688293px;line-height:1.25;font-family:FreeSerif;-inkscape-font-specification:FreeSerif">1</tspan></text>
    <text
       xml:space="preserve"
       style="font-style:normal;font-weight:normal;line-height:0%;font-family:sans-serif;letter-spacing:0px;word-spacing:0px;fill:#000000;fill-opacity:1;stroke:none;stroke-width:1px;stroke-linecap:butt;stroke-linejoin:miter;stroke-opacity:1"
       x="297.41412"
       y="692.90533"
       id="text11465-2-9-4"><tspan
         sodipodi:role="line"
         id="tspan11467-0-0-7"
         x="297.41412"
         y="692.90533"
         style="font-style:normal;font-variant:normal;font-weight:normal;font-stretch:normal;font-size:29.72688293px;line-height:1.25;font-family:FreeSerif;-inkscape-font-specification:FreeSerif">3</tspan></text>
    <text
       xml:space="preserve"
       style="font-style:normal;font-weight:normal;line-height:0%;font-family:sans-serif;letter-spacing:0px;word-spacing:0px;fill:#000000;fill-opacity:1;stroke:none;stroke-width:1px;stroke-linecap:butt;stroke-linejoin:miter;stroke-opacity:1"
       x="168.11459"
       y="437.84183"
       id="text11465-2-9-45"><tspan
         sodipodi:role="line"
         id="tspan11467-0-0-0"
         x="168.11459"
         y="437.84183"
         style="font-style:normal;font-variant:normal;font-weight:normal;font-stretch:normal;font-size:29.72688293px;line-height:1.25;font-family:FreeSerif;-inkscape-font-specification:FreeSerif">4</tspan></text>
    <rect
       style="fill:#ffffff;fill-opacity:1;stroke:#000000;stroke-width:2.5;stroke-miterlimit:4;stroke-dasharray:none;stroke-opacity:1"
       id="rect3856"
       width="99.285713"
       height="6.4285712"
       x="183.57143"
       y="555.93365" />
    <rect
       style="fill:#ffffff;fill-opacity:1;stroke:#000000;stroke-width:2.5;stroke-miterlimit:4;stroke-dasharray:none;stroke-opacity:1"
       id="rect4658"
       width="50.714287"
       height="42.142857"
       x="131.42857"
       y="537.93359" />
    <text
       xml:space="preserve"
       style="font-style:normal;font-weight:normal;line-height:0%;font-family:sans-serif;letter-spacing:0px;word-spacing:0px;fill:#000000;fill-opacity:1;stroke:none;stroke-width:1px;stroke-linecap:butt;stroke-linejoin:miter;stroke-opacity:1"
       x="149.99597"
       y="568.03955"
       id="text11465-2-9-45-5"><tspan
         sodipodi:role="line"
         id="tspan11467-0-0-0-6"
         x="149.99597"
         y="568.03955"
         style="font-style:normal;font-variant:normal;font-weight:normal;font-stretch:normal;font-size:29.72688293px;line-height:1.25;font-family:FreeSerif;-inkscape-font-specification:FreeSerif">5</tspan></text>
    <path
       style="fill:none;fill-rule:evenodd;stroke:#000000;stroke-width:2.19947028px;stroke-linecap:butt;stroke-linejoin:miter;stroke-opacity:1"
       d="m 473.61556,555.59636 c 48.36993,0 49.75192,0 49.75192,0 l -6.21897,-8.92981 43.53291,12.05523 -40.0779,11.6088 2.07296,-8.03686 -49.75188,0.44651 z"
       id="path10978"
       inkscape:connector-curvature="0" />
    <path
       style="fill:none;fill-rule:evenodd;stroke:#000000;stroke-width:2.19947028px;stroke-linecap:butt;stroke-linejoin:miter;stroke-opacity:1"
       d="m 432.55973,680.30176 c 34.20271,34.2027 35.17992,35.17992 35.17992,35.17992 l 1.91685,-10.71181 22.25809,39.30675 -36.54802,-20.13069 7.14872,-4.21711 -35.49562,-34.86417 z"
       id="path10978-1"
       inkscape:connector-curvature="0" />
    <text
       xml:space="preserve"
       style="font-style:normal;font-weight:normal;line-height:0%;font-family:sans-serif;letter-spacing:0px;word-spacing:0px;fill:#000000;fill-opacity:1;stroke:none;stroke-width:1px;stroke-linecap:butt;stroke-linejoin:miter;stroke-opacity:1"
       x="543.21027"
       y="539.82526"
       id="text11465-2-9-4-3"><tspan
         sodipodi:role="line"
         id="tspan11467-0-0-7-0"
         x="543.21027"
         y="539.82526"
         style="font-style:normal;font-variant:normal;font-weight:normal;font-stretch:normal;font-size:29.72688293px;line-height:1.25;font-family:FreeSerif;-inkscape-font-specification:FreeSerif">6</tspan></text>
    <text
       xml:space="preserve"
       style="font-style:normal;font-weight:normal;line-height:0%;font-family:sans-serif;letter-spacing:0px;word-spacing:0px;fill:#000000;fill-opacity:1;stroke:none;stroke-width:1px;stroke-linecap:butt;stroke-linejoin:miter;stroke-opacity:1"
       x="462.77277"
       y="770.89673"
       id="text11465-2-9-4-4"><tspan
         sodipodi:role="line"
         id="tspan11467-0-0-7-00"
         x="462.77277"
         y="770.89673"
         style="font-style:normal;font-variant:normal;font-weight:normal;font-stretch:normal;font-size:29.72688293px;line-height:1.25;font-family:FreeSerif;-inkscape-font-specification:FreeSerif">7</tspan></text>
  </g>
</svg>
